<svg xmlns="http://www.w3.org/2000/svg" viewBox="0 0 792 2075.85"><defs><style>.cls-1,.cls-187{fill:#e8e8e8;}.cls-2{font-size:72px;}.cls-185,.cls-2,.cls-232,.cls-72,.cls-80{fill:#231f20;}.cls-2,.cls-72{font-family:RobotoCondensed-Bold, Roboto Condensed;}.cls-155,.cls-160,.cls-3,.cls-73,.cls-74{font-weight:700;}.cls-4{letter-spacing:-0.02em;}.cls-5{letter-spacing:-0.03em;}.cls-6{letter-spacing:-0.02em;}.cls-7{letter-spacing:-0.02em;}.cls-8{letter-spacing:-0.02em;}.cls-9{letter-spacing:-0.03em;}.cls-10{letter-spacing:-0.02em;}.cls-11{letter-spacing:-0.01em;}.cls-12{letter-spacing:-0.02em;}.cls-13{letter-spacing:-0.02em;}.cls-14{letter-spacing:-0.1em;}.cls-15{letter-spacing:-0.02em;}.cls-16{letter-spacing:-0.01em;}.cls-17{font-size:48px;}.cls-156,.cls-157,.cls-158,.cls-159,.cls-161,.cls-162,.cls-163,.cls-17,.cls-232,.cls-75,.cls-76,.cls-77,.cls-78,.cls-79,.cls-80{font-family:RobotoCondensed-Regular, Roboto Condensed;}.cls-18{letter-spacing:-0.01em;}.cls-19{letter-spacing:-0.01em;}.cls-20{letter-spacing:-0.01em;}.cls-21{letter-spacing:-0.01em;}.cls-22{letter-spacing:-0.01em;}.cls-23{letter-spacing:-0.01em;}.cls-24{letter-spacing:-0.02em;}.cls-25{letter-spacing:-0.02em;}.cls-26{letter-spacing:-0.02em;}.cls-27{letter-spacing:-0.01em;}.cls-28{letter-spacing:-0.03em;}.cls-29{letter-spacing:-0.05em;}.cls-30{letter-spacing:-0.01em;}.cls-31{letter-spacing:-0.01em;}.cls-32{letter-spacing:-0.02em;}.cls-33{letter-spacing:-0.01em;}.cls-34{letter-spacing:-0.02em;}.cls-35{letter-spacing:-0.02em;}.cls-36{letter-spacing:-0.02em;}.cls-37{letter-spacing:-0.02em;}.cls-38{letter-spacing:-0.01em;}.cls-39{letter-spacing:-0.01em;}.cls-40{letter-spacing:-0.02em;}.cls-41{letter-spacing:-0.02em;}.cls-42{letter-spacing:-0.01em;}.cls-43{letter-spacing:-0.01em;}.cls-44{letter-spacing:-0.01em;}.cls-45{letter-spacing:-0.02em;}.cls-46{letter-spacing:-0.02em;}.cls-47{letter-spacing:0em;}.cls-48{letter-spacing:-0.02em;}.cls-49{letter-spacing:-0.01em;}.cls-50{letter-spacing:-0.02em;}.cls-51{letter-spacing:-0.02em;}.cls-52{letter-spacing:-0.01em;}.cls-53{letter-spacing:0.01em;}.cls-54{letter-spacing:-0.02em;}.cls-55{letter-spacing:-0.01em;}.cls-56{letter-spacing:-0.01em;}.cls-57{letter-spacing:-0.02em;}.cls-58{letter-spacing:-0.01em;}.cls-59{letter-spacing:-0.01em;}.cls-60{letter-spacing:-0.02em;}.cls-61{letter-spacing:-0.02em;}.cls-62{letter-spacing:-0.02em;}.cls-63{font-size:60px;font-family:RobotoCondensed-Light, Roboto Condensed;}.cls-64{letter-spacing:-0.03em;}.cls-65{letter-spacing:-0.03em;}.cls-66{letter-spacing:-0.02em;}.cls-67{letter-spacing:-0.02em;}.cls-68{letter-spacing:-0.02em;}.cls-69{letter-spacing:-0.02em;}.cls-70{letter-spacing:-0.01em;}.cls-71{letter-spacing:-0.01em;}.cls-72,.cls-80{font-size:33px;}.cls-73{letter-spacing:-0.01em;}.cls-74{letter-spacing:-0.01em;}.cls-75{letter-spacing:-0.01em;}.cls-76{letter-spacing:0em;}.cls-77{letter-spacing:0em;}.cls-78{letter-spacing:-0.02em;}.cls-81{letter-spacing:-0.01em;}.cls-82{letter-spacing:-0.01em;}.cls-163,.cls-83{letter-spacing:-0.02em;}.cls-84{letter-spacing:0em;}.cls-85{letter-spacing:-0.01em;}.cls-86{letter-spacing:-0.01em;}.cls-87{letter-spacing:-0.01em;}.cls-88{letter-spacing:-0.01em;}.cls-89{letter-spacing:-0.01em;}.cls-90{letter-spacing:-0.01em;}.cls-91{letter-spacing:0em;}.cls-92{letter-spacing:0.01em;}.cls-93{letter-spacing:-0.02em;}.cls-94{letter-spacing:-0.01em;}.cls-95{letter-spacing:-0.01em;}.cls-96{letter-spacing:0em;}.cls-97{letter-spacing:0em;}.cls-98{letter-spacing:-0.02em;}.cls-99{letter-spacing:-0.01em;}.cls-100{letter-spacing:-0.01em;}.cls-101{letter-spacing:0em;}.cls-102{letter-spacing:-0.01em;}.cls-103,.cls-157{letter-spacing:-0.01em;}.cls-104{letter-spacing:-0.01em;}.cls-105{letter-spacing:-0.02em;}.cls-106{letter-spacing:-0.02em;}.cls-107{letter-spacing:-0.02em;}.cls-108{letter-spacing:0em;}.cls-109{letter-spacing:-0.01em;}.cls-110{letter-spacing:-0.02em;}.cls-111{letter-spacing:-0.01em;}.cls-112{letter-spacing:-0.01em;}.cls-113{letter-spacing:-0.01em;}.cls-114{letter-spacing:-0.01em;}.cls-115{letter-spacing:-0.01em;}.cls-116{letter-spacing:-0.02em;}.cls-117{letter-spacing:-0.01em;}.cls-118{letter-spacing:-0.01em;}.cls-119{letter-spacing:-0.01em;}.cls-120{letter-spacing:-0.01em;}.cls-121{letter-spacing:0em;}.cls-122{letter-spacing:-0.01em;}.cls-123{letter-spacing:-0.01em;}.cls-124{letter-spacing:0em;}.cls-125{letter-spacing:0em;}.cls-126{letter-spacing:-0.01em;}.cls-127{letter-spacing:-0.01em;}.cls-128{letter-spacing:-0.01em;}.cls-129{letter-spacing:0em;}.cls-130{letter-spacing:-0.01em;}.cls-131{letter-spacing:-0.01em;}.cls-132{letter-spacing:-0.02em;}.cls-133{letter-spacing:-0.01em;}.cls-134{letter-spacing:-0.01em;}.cls-135{letter-spacing:0em;}.cls-136{letter-spacing:-0.01em;}.cls-137{letter-spacing:0em;}.cls-138{letter-spacing:0em;}.cls-139{letter-spacing:-0.01em;}.cls-140{letter-spacing:-0.02em;}.cls-141{letter-spacing:-0.01em;}.cls-142{letter-spacing:0em;}.cls-143{letter-spacing:-0.01em;}.cls-144{letter-spacing:-0.01em;}.cls-145{letter-spacing:-0.01em;}.cls-146{letter-spacing:-0.01em;}.cls-147{letter-spacing:-0.02em;}.cls-148,.cls-162{letter-spacing:-0.02em;}.cls-149{letter-spacing:-0.02em;}.cls-150{letter-spacing:-0.02em;}.cls-151,.cls-159{letter-spacing:-0.01em;}.cls-152{letter-spacing:0em;}.cls-153{letter-spacing:-0.01em;}.cls-154{letter-spacing:-0.04em;}.cls-155{letter-spacing:-0.01em;}.cls-156{letter-spacing:-0.03em;}.cls-158{letter-spacing:0em;}.cls-160{letter-spacing:-0.02em;}.cls-161{letter-spacing:0em;}.cls-164{fill:#ab4949;}.cls-165{fill:#c66728;}.cls-166{fill:#f8bc50;}.cls-167,.cls-231{fill:none;}.cls-167{stroke:#010101;}.cls-167,.cls-187,.cls-231{stroke-miterlimit:10;stroke-width:3px;}.cls-168{letter-spacing:-0.03em;}.cls-169{letter-spacing:-0.03em;}.cls-170{letter-spacing:-0.03em;}.cls-171{letter-spacing:-0.02em;}.cls-172{letter-spacing:-0.03em;}.cls-173{letter-spacing:-0.02em;}.cls-174{letter-spacing:-0.02em;}.cls-175{letter-spacing:-0.02em;}.cls-176{letter-spacing:-0.02em;}.cls-177{letter-spacing:-0.02em;}.cls-178{letter-spacing:-0.03em;}.cls-179{letter-spacing:-0.02em;}.cls-180{letter-spacing:-0.01em;}.cls-181{letter-spacing:-0.02em;}.cls-182{letter-spacing:-0.02em;}.cls-183{letter-spacing:-0.01em;}.cls-184{fill:#bcbec0;}.cls-186{fill:#fff;}.cls-187{stroke:#231f20;}.cls-188{font-size:22.58px;font-family:Roboto-Regular, Roboto;}.cls-188,.cls-224{fill:#3d393f;}.cls-189{letter-spacing:-0.01em;}.cls-190{letter-spacing:-0.02em;}.cls-191{letter-spacing:-0.01em;}.cls-192{letter-spacing:0em;}.cls-193{letter-spacing:0em;}.cls-194{letter-spacing:-0.01em;}.cls-195{letter-spacing:-0.01em;}.cls-196{letter-spacing:0em;}.cls-197{letter-spacing:0em;}.cls-198{letter-spacing:-0.01em;}.cls-199{letter-spacing:-0.03em;}.cls-200{letter-spacing:-0.01em;}.cls-201{letter-spacing:-0.02em;}.cls-202{letter-spacing:-0.01em;}.cls-203{letter-spacing:-0.01em;}.cls-204{letter-spacing:-0.01em;}.cls-205{letter-spacing:-0.01em;}.cls-206{letter-spacing:-0.01em;}.cls-207{letter-spacing:-0.01em;}.cls-208{letter-spacing:-0.01em;}.cls-209{letter-spacing:-0.01em;}.cls-210{letter-spacing:-0.02em;}.cls-211{letter-spacing:-0.02em;}.cls-212{letter-spacing:-0.01em;}.cls-213{letter-spacing:-0.01em;}.cls-214{letter-spacing:-0.02em;}.cls-215{letter-spacing:-0.01em;}.cls-216{letter-spacing:-0.01em;}.cls-217{letter-spacing:-0.02em;}.cls-218{letter-spacing:0em;}.cls-219{letter-spacing:-0.04em;}.cls-220{letter-spacing:-0.01em;}.cls-221{letter-spacing:-0.01em;}.cls-222{letter-spacing:0em;}.cls-223{letter-spacing:0em;}.cls-225{letter-spacing:0em;}.cls-226{letter-spacing:0em;}.cls-227{letter-spacing:-0.03em;}.cls-228{letter-spacing:0em;}.cls-229{letter-spacing:-0.06em;}.cls-230{letter-spacing:-0.05em;}.cls-231{stroke:#fff;}.cls-232{font-size:24px;}.cls-233{letter-spacing:0em;}.cls-234{letter-spacing:-0.01em;}.cls-235{letter-spacing:-0.02em;}.cls-236{letter-spacing:0em;}.cls-237{letter-spacing:0em;}.cls-238{letter-spacing:0em;}.cls-239{letter-spacing:-0.01em;}.cls-240{letter-spacing:0em;}.cls-241{letter-spacing:-0.01em;}.cls-242{letter-spacing:-0.01em;}.cls-243{letter-spacing:0em;}.cls-244{letter-spacing:-0.01em;}.cls-245{letter-spacing:0em;}.cls-246{letter-spacing:0em;}.cls-247{letter-spacing:-0.02em;}.cls-248{letter-spacing:-0.01em;}.cls-249{letter-spacing:0em;}.cls-250{letter-spacing:-0.02em;}.cls-251{font-size:18px;}.cls-252{letter-spacing:0em;}.cls-253{letter-spacing:0.03em;}.cls-254{letter-spacing:-0.01em;}.cls-255{letter-spacing:-0.01em;}.cls-256{letter-spacing:-0.01em;}.cls-257{letter-spacing:0em;}.cls-258{letter-spacing:0em;}.cls-259{letter-spacing:0em;}.cls-260{letter-spacing:0em;}.cls-261{letter-spacing:0em;}.cls-262{letter-spacing:0.02em;}.cls-263{letter-spacing:-0.01em;}.cls-264{letter-spacing:-0.01em;}.cls-265{letter-spacing:0em;}.cls-266{letter-spacing:-0.01em;}.cls-267{letter-spacing:-0.01em;}.cls-268{letter-spacing:-0.01em;}.cls-269{letter-spacing:-0.01em;}.cls-270{letter-spacing:0em;}.cls-271{letter-spacing:-0.01em;}.cls-272{letter-spacing:-0.01em;}.cls-273{letter-spacing:-0.04em;}.cls-274{letter-spacing:0em;}.cls-275{letter-spacing:0em;}.cls-276{letter-spacing:0.01em;}.cls-277{letter-spacing:-0.01em;}.cls-278{letter-spacing:0em;}.cls-279{letter-spacing:-0.01em;}.cls-280{letter-spacing:-0.04em;}.cls-281{letter-spacing:0em;}.cls-282{letter-spacing:-0.01em;}.cls-283{letter-spacing:-0.01em;}.cls-284{letter-spacing:0em;}.cls-285{letter-spacing:-0.01em;}.cls-286{letter-spacing:-0.01em;}.cls-287{letter-spacing:-0.01em;}.cls-288{letter-spacing:0em;}.cls-289{letter-spacing:0em;}.cls-290{letter-spacing:0em;}.cls-291{letter-spacing:0em;}.cls-292{letter-spacing:0em;}.cls-293{letter-spacing:0em;}.cls-294{letter-spacing:0.01em;}.cls-295{letter-spacing:-0.01em;}.cls-296{letter-spacing:0.03em;}.cls-297{letter-spacing:-0.01em;}.cls-298{letter-spacing:-0.01em;}.cls-299{letter-spacing:0.02em;}.cls-300{letter-spacing:0em;}.cls-301{letter-spacing:-0.02em;}.cls-302{letter-spacing:0.01em;}.cls-303{letter-spacing:0em;}.cls-304{letter-spacing:0em;}.cls-305{letter-spacing:0em;}.cls-306{letter-spacing:0em;}.cls-307{letter-spacing:0em;}.cls-308{letter-spacing:-0.01em;}.cls-309{letter-spacing:0em;}.cls-310{letter-spacing:-0.05em;}.cls-311{letter-spacing:0em;}.cls-312{letter-spacing:-0.01em;}.cls-313{letter-spacing:0em;}.cls-314{letter-spacing:-0.01em;}.cls-315{letter-spacing:0em;}.cls-316{letter-spacing:-0.01em;}.cls-317{letter-spacing:0em;}.cls-318{letter-spacing:0em;}.cls-319{letter-spacing:0em;}.cls-320{letter-spacing:0em;}.cls-321{letter-spacing:-0.04em;}.cls-322{letter-spacing:-0.07em;}.cls-323{letter-spacing:0em;}.cls-324{letter-spacing:-0.01em;}.cls-325{letter-spacing:0em;}.cls-326{letter-spacing:0.01em;}.cls-327{letter-spacing:-0.01em;}.cls-328{letter-spacing:0.01em;}.cls-329{letter-spacing:0em;}.cls-330{letter-spacing:0em;}.cls-331{letter-spacing:-0.04em;}.cls-332{letter-spacing:0em;}.cls-333{letter-spacing:-0.01em;}.cls-334{letter-spacing:-0.01em;}.cls-335{letter-spacing:0em;}.cls-336{letter-spacing:0em;}.cls-337{letter-spacing:-0.01em;}.cls-338{letter-spacing:-0.01em;}.cls-339{letter-spacing:0em;}.cls-340{letter-spacing:0em;}.cls-341{letter-spacing:0em;}.cls-342{letter-spacing:-0.01em;}.cls-343{letter-spacing:-0.01em;}.cls-344{letter-spacing:0em;}.cls-345{letter-spacing:0em;}.cls-346{letter-spacing:0em;}.cls-347{letter-spacing:-0.01em;}.cls-348{letter-spacing:0em;}.cls-349{letter-spacing:-0.01em;}.cls-350{letter-spacing:0em;}.cls-351{letter-spacing:0em;}.cls-352{letter-spacing:0em;}.cls-353{letter-spacing:0em;}.cls-354{letter-spacing:-0.01em;}.cls-355{letter-spacing:-0.01em;}.cls-356{letter-spacing:0em;}.cls-357{letter-spacing:0em;}.cls-358{letter-spacing:0em;}.cls-359{letter-spacing:-0.01em;}.cls-360{letter-spacing:-0.01em;}.cls-361{letter-spacing:-0.01em;}.cls-362{letter-spacing:0em;}.cls-363{letter-spacing:0em;}.cls-364{letter-spacing:0em;}.cls-365{letter-spacing:-0.02em;}.cls-366{letter-spacing:-0.01em;}.cls-367{letter-spacing:0em;}.cls-368{letter-spacing:-0.02em;}.cls-369{letter-spacing:0em;}.cls-370{letter-spacing:0em;}.cls-371{letter-spacing:0.03em;}.cls-372{letter-spacing:0em;}.cls-373{letter-spacing:0em;}.cls-374{letter-spacing:-0.02em;}.cls-375{letter-spacing:-0.01em;}</style></defs><title>Intro</title><g id="Background"><rect class="cls-1" x="13.23" y="825.75" width="760.64" height="546.77"/></g><g id="Layer_1" data-name="Layer 1"><text class="cls-2" transform="translate(28 159.48)"><tspan class="cls-3"><tspan class="cls-4">5</tspan><tspan class="cls-5" x="35.04" y="0">0</tspan><tspan class="cls-6" x="69.09" y="0">/</tspan><tspan class="cls-7" x="91.45" y="0">3</tspan><tspan class="cls-5" x="126.18" y="0">0</tspan><tspan class="cls-8" x="160.22" y="0">/</tspan><tspan class="cls-9" x="182.43" y="0">2</tspan><tspan x="216.84" y="0">0 </tspan><tspan class="cls-4" x="269.85" y="0">L</tspan><tspan class="cls-10" x="302.92" y="0">i</tspan><tspan class="cls-11" x="319.94" y="0">t</tspan><tspan class="cls-12" x="341.3" y="0">m</tspan><tspan class="cls-13" x="393.53" y="0">u</tspan><tspan x="427.77" y="0">s </tspan><tspan class="cls-14" x="477.06" y="0">T</tspan><tspan class="cls-15" x="508.92" y="0">e</tspan><tspan class="cls-16" x="542.02" y="0">s</tspan><tspan x="574.22" y="0">t</tspan></tspan><tspan class="cls-17"><tspan x="0" y="69.6">A </tspan><tspan class="cls-18" x="38.65" y="69.6">l</tspan><tspan class="cls-19" x="48.95" y="69.6">o</tspan><tspan class="cls-20" x="72.47" y="69.6">o</tspan><tspan x="96.02" y="69.6">k </tspan><tspan class="cls-21" x="128.65" y="69.6">a</tspan><tspan x="151.17" y="69.6">t </tspan><tspan class="cls-22" x="176.34" y="69.6">c</tspan><tspan class="cls-23" x="197.89" y="69.6">i</tspan><tspan class="cls-24" x="208.56" y="69.6">t</tspan><tspan class="cls-25" x="221.75" y="69.6">i</tspan><tspan class="cls-26" x="231.55" y="69.6">z</tspan><tspan class="cls-27" x="251.51" y="69.6">e</tspan><tspan class="cls-28" x="273.65" y="69.6">n</tspan><tspan class="cls-29" x="295.41" y="69.6">’</tspan><tspan x="302.19" y="69.6">s </tspan><tspan class="cls-30" x="335.05" y="69.6">p</tspan><tspan class="cls-31" x="358.32" y="69.6">o</tspan><tspan class="cls-32" x="381.84" y="69.6">t</tspan><tspan class="cls-27" x="394.95" y="69.6">e</tspan><tspan class="cls-33" x="417.08" y="69.6">n</tspan><tspan class="cls-34" x="439.87" y="69.6">t</tspan><tspan class="cls-35" x="453.05" y="69.6">i</tspan><tspan class="cls-36" x="462.88" y="69.6">a</tspan><tspan x="485.03" y="69.6">l </tspan><tspan class="cls-37" x="507.02" y="69.6">f</tspan><tspan class="cls-38" x="521.01" y="69.6">o</tspan><tspan x="544.56" y="69.6">r </tspan><tspan class="cls-39" x="0" y="127.2">f</tspan><tspan class="cls-40" x="14.93" y="127.2">i</tspan><tspan class="cls-41" x="25.19" y="127.2">n</tspan><tspan class="cls-42" x="47.4" y="127.2">a</tspan><tspan class="cls-43" x="69.69" y="127.2">n</tspan><tspan class="cls-44" x="92.35" y="127.2">c</tspan><tspan class="cls-45" x="113.9" y="127.2">i</tspan><tspan class="cls-46" x="123.73" y="127.2">a</tspan><tspan x="145.88" y="127.2">l </tspan><tspan class="cls-47" x="167.87" y="127.2">s</tspan><tspan class="cls-48" x="189.6" y="127.2">t</tspan><tspan class="cls-42" x="203.02" y="127.2">a</tspan><tspan class="cls-49" x="225.31" y="127.2">b</tspan><tspan class="cls-50" x="248.34" y="127.2">i</tspan><tspan class="cls-51" x="258.43" y="127.2">l</tspan><tspan class="cls-52" x="268.5" y="127.2">i</tspan><tspan class="cls-53" x="279.17" y="127.2">t</tspan><tspan x="293.73" y="127.2">y </tspan><tspan class="cls-54" x="324.71" y="127.2">a</tspan><tspan class="cls-55" x="346.97" y="127.2">c</tspan><tspan class="cls-56" x="368.74" y="127.2">r</tspan><tspan class="cls-57" x="382.66" y="127.2">o</tspan><tspan class="cls-58" x="405.97" y="127.2">s</tspan><tspan x="427.17" y="127.2">s </tspan><tspan class="cls-44" x="460.03" y="127.2">c</tspan><tspan class="cls-59" x="481.58" y="127.2">i</tspan><tspan class="cls-60" x="492.25" y="127.2">t</tspan><tspan class="cls-61" x="505.44" y="127.2">i</tspan><tspan class="cls-62" x="515.62" y="127.2">e</tspan><tspan x="537.21" y="127.2">s</tspan></tspan></text><text class="cls-63" transform="translate(34.13 913.12)"><tspan class="cls-64">I</tspan><tspan class="cls-36" x="13.15" y="0">d</tspan><tspan class="cls-51" x="41.37" y="0">e</tspan><tspan class="cls-65" x="67.67" y="0">a</tspan><tspan x="94.21" y="0">l </tspan><tspan class="cls-66" x="120.31" y="0">B</tspan><tspan class="cls-67" x="151.09" y="0">u</tspan><tspan class="cls-68" x="178.88" y="0">d</tspan><tspan class="cls-69" x="206.95" y="0">g</tspan><tspan class="cls-70" x="235.16" y="0">e</tspan><tspan class="cls-71" x="262.01" y="0">t</tspan><tspan x="278.79" y="0">:</tspan></text><text class="cls-72" transform="translate(39.89 998.91) rotate(-0.04)"><tspan class="cls-73">5</tspan><tspan class="cls-74" x="16.46" y="0">0</tspan><tspan class="cls-3" x="32.76" y="0">% </tspan><tspan class="cls-75" x="61.44" y="0">N</tspan><tspan class="cls-76" x="81.65" y="0">e</tspan><tspan class="cls-77" x="96.96" y="0">e</tspan><tspan class="cls-78" x="112.38" y="0">d</tspan><tspan class="cls-79" x="128.23" y="0">s</tspan></text><text class="cls-80" transform="translate(36.89 1549.46) rotate(-0.04)"><tspan class="cls-81">G</tspan><tspan class="cls-82" x="19.1" y="0">i</tspan><tspan class="cls-83" x="26.41" y="0">v</tspan><tspan class="cls-84" x="39.82" y="0">e</tspan><tspan x="55.19" y="0">n </tspan><tspan class="cls-85" x="78.72" y="0">t</tspan><tspan class="cls-86" x="88.07" y="0">h</tspan><tspan x="103.76" y="0">e </tspan><tspan class="cls-87" x="126.77" y="0">r</tspan><tspan class="cls-88" x="136.5" y="0">e</tspan><tspan class="cls-89" x="151.5" y="0">a</tspan><tspan class="cls-90" x="166.89" y="0">l</tspan><tspan class="cls-91" x="173.98" y="0">i</tspan><tspan class="cls-92" x="181.48" y="0">t</tspan><tspan x="191.63" y="0">y </tspan><tspan class="cls-93" x="212.93" y="0">o</tspan><tspan x="228.89" y="0">f </tspan><tspan class="cls-94" x="246.89" y="0">e</tspan><tspan class="cls-95" x="262.05" y="0">x</tspan><tspan class="cls-96" x="276.32" y="0">p</tspan><tspan class="cls-97" x="292.5" y="0">e</tspan><tspan class="cls-98" x="307.88" y="0">n</tspan><tspan class="cls-99" x="323.32" y="0">s</tspan><tspan class="cls-100" x="338" y="0">e</tspan><tspan class="cls-101" x="353.01" y="0">s</tspan><tspan x="368.03" y="0">, </tspan><tspan class="cls-102" x="382.06" y="0">c</tspan><tspan class="cls-103" x="397.11" y="0">a</tspan><tspan x="412.6" y="0">n </tspan><tspan class="cls-104" x="436.12" y="0">c</tspan><tspan class="cls-91" x="451.1" y="0">i</tspan><tspan class="cls-105" x="458.6" y="0">t</tspan><tspan class="cls-106" x="467.83" y="0">i</tspan><tspan class="cls-107" x="474.74" y="0">z</tspan><tspan class="cls-97" x="488.64" y="0">e</tspan><tspan class="cls-98" x="504.01" y="0">n</tspan><tspan x="519.45" y="0">s </tspan><tspan class="cls-108" x="542.04" y="0">s</tspan><tspan class="cls-109" x="557.13" y="0">t</tspan><tspan class="cls-110" x="566.52" y="0">a</tspan><tspan x="581.72" y="0">y </tspan><tspan class="cls-111" x="603.02" y="0">w</tspan><tspan class="cls-91" x="624.17" y="0">i</tspan><tspan class="cls-85" x="631.66" y="0">t</tspan><tspan class="cls-112" x="641.01" y="0">h</tspan><tspan class="cls-113" x="656.54" y="0">i</tspan><tspan x="663.76" y="0">n </tspan><tspan class="cls-114" x="0" y="46">t</tspan><tspan class="cls-115" x="9.35" y="46">h</tspan><tspan class="cls-116" x="24.88" y="46">i</tspan><tspan x="31.87" y="46">s </tspan><tspan class="cls-117" x="54.46" y="46">i</tspan><tspan class="cls-118" x="61.7" y="46">d</tspan><tspan class="cls-88" x="77.8" y="46">e</tspan><tspan class="cls-119" x="92.79" y="46">a</tspan><tspan x="108.19" y="46">l </tspan><tspan class="cls-120" x="123.3" y="46">b</tspan><tspan class="cls-121" x="139.41" y="46">u</tspan><tspan class="cls-122" x="155.21" y="46">d</tspan><tspan class="cls-123" x="171.36" y="46">g</tspan><tspan class="cls-124" x="187.42" y="46">e</tspan><tspan class="cls-125" x="202.95" y="46">t</tspan><tspan x="212.67" y="46">, </tspan><tspan class="cls-126" x="226.71" y="46">o</tspan><tspan x="243.06" y="46">r </tspan><tspan class="cls-116" x="260.65" y="46">i</tspan><tspan x="267.64" y="46">s </tspan><tspan class="cls-114" x="290.23" y="46">t</tspan><tspan class="cls-127" x="299.58" y="46">h</tspan><tspan x="315.27" y="46">e </tspan><tspan class="cls-113" x="338.28" y="46">i</tspan><tspan class="cls-128" x="345.49" y="46">n</tspan><tspan class="cls-129" x="361.23" y="46">c</tspan><tspan class="cls-130" x="376.35" y="46">r</tspan><tspan class="cls-131" x="386.09" y="46">e</tspan><tspan class="cls-132" x="401.08" y="46">a</tspan><tspan class="cls-133" x="416.23" y="46">s</tspan><tspan class="cls-113" x="430.79" y="46">i</tspan><tspan class="cls-134" x="438" y="46">n</tspan><tspan x="453.77" y="46">g </tspan><tspan class="cls-135" x="477.59" y="46">c</tspan><tspan class="cls-136" x="492.75" y="46">o</tspan><tspan class="cls-108" x="508.95" y="46">s</tspan><tspan x="524.05" y="46">t </tspan><tspan class="cls-93" x="541.35" y="46">o</tspan><tspan x="557.31" y="46">f </tspan><tspan class="cls-104" x="575.31" y="46">n</tspan><tspan class="cls-137" x="591.01" y="46">e</tspan><tspan class="cls-138" x="606.36" y="46">c</tspan><tspan class="cls-100" x="621.49" y="46">e</tspan><tspan class="cls-139" x="636.5" y="46">s</tspan><tspan class="cls-133" x="651.24" y="46">s</tspan><tspan class="cls-91" x="665.8" y="46">i</tspan><tspan class="cls-140" x="673.29" y="46">t</tspan><tspan class="cls-85" x="682.52" y="46">i</tspan><tspan class="cls-141" x="689.68" y="46">e</tspan><tspan x="704.7" y="46">s </tspan><tspan class="cls-105" x="0" y="92">h</tspan><tspan class="cls-103" x="15.42" y="92">a</tspan><tspan class="cls-142" x="30.91" y="92">r</tspan><tspan class="cls-119" x="40.83" y="92">m</tspan><tspan class="cls-113" x="65.25" y="92">i</tspan><tspan class="cls-134" x="72.47" y="92">n</tspan><tspan x="88.24" y="92">g </tspan><tspan class="cls-114" x="112.05" y="92">t</tspan><tspan class="cls-127" x="121.4" y="92">h</tspan><tspan class="cls-143" x="137.09" y="92">e</tspan><tspan class="cls-113" x="152.28" y="92">i</tspan><tspan x="159.5" y="92">r </tspan><tspan class="cls-144" x="177.09" y="92">a</tspan><tspan class="cls-145" x="192.58" y="92">b</tspan><tspan class="cls-146" x="208.58" y="92">i</tspan><tspan class="cls-90" x="215.68" y="92">l</tspan><tspan class="cls-91" x="222.77" y="92">i</tspan><tspan class="cls-92" x="230.26" y="92">t</tspan><tspan x="240.42" y="92">y </tspan><tspan class="cls-147" x="261.72" y="92">t</tspan><tspan x="270.82" y="92">o </tspan><tspan class="cls-119" x="294.94" y="92">s</tspan><tspan class="cls-148" x="309.56" y="92">a</tspan><tspan class="cls-149" x="324.67" y="92">v</tspan><tspan x="338.08" y="92">e </tspan><tspan class="cls-150" x="361.09" y="92">f</tspan><tspan class="cls-126" x="370.88" y="92">o</tspan><tspan x="387.23" y="92">r </tspan><tspan class="cls-114" x="404.82" y="92">t</tspan><tspan class="cls-127" x="414.18" y="92">h</tspan><tspan x="429.86" y="92">e </tspan><tspan class="cls-151" x="452.87" y="92">f</tspan><tspan class="cls-152" x="462.97" y="92">u</tspan><tspan class="cls-109" x="478.96" y="92">t</tspan><tspan class="cls-153" x="488.35" y="92">u</tspan><tspan class="cls-130" x="504.04" y="92">r</tspan><tspan class="cls-154" x="513.78" y="92">e</tspan><tspan x="527.9" y="92">?</tspan></text><text class="cls-72" transform="translate(399.56 998.64) rotate(-0.04)"><tspan class="cls-155">3</tspan><tspan class="cls-74" x="16.32" y="0">0</tspan><tspan class="cls-3" x="32.62" y="0">% </tspan><tspan class="cls-156" x="61.31" y="0">W</tspan><tspan class="cls-157" x="85.48" y="0">a</tspan><tspan class="cls-158" x="100.97" y="0">n</tspan><tspan class="cls-159" x="116.79" y="0">t</tspan><tspan class="cls-79" x="126.19" y="0">s</tspan></text><text class="cls-72" transform="translate(615.89 998.48) rotate(-0.04)"><tspan class="cls-160">2</tspan><tspan class="cls-74" x="16.18" y="0">0</tspan><tspan class="cls-3" x="32.49" y="0">% </tspan><tspan class="cls-161" x="61.17" y="0">S</tspan><tspan class="cls-162" x="78.21" y="0">a</tspan><tspan class="cls-163" x="93.32" y="0">v</tspan><tspan class="cls-79" x="106.73" y="0">e</tspan></text><rect class="cls-164" x="608.7" y="1018.19" width="144" height="73.44"/><rect class="cls-165" x="392.7" y="1018.32" width="216" height="73.44"/><rect class="cls-166" x="35.7" y="1018.54" width="357" height="73.44"/><line class="cls-167" x1="13.38" y1="30.55" x2="774.08" y2="30.64"/><line class="cls-167" x1="13.38" y1="825.54" x2="774.08" y2="825.63"/><line class="cls-167" x1="13.38" y1="811.54" x2="774.08" y2="811.63"/><text class="cls-63" transform="translate(34.13 461.1)"><tspan class="cls-168">I</tspan><tspan class="cls-169" x="12.85" y="0">n</tspan><tspan class="cls-170" x="40.17" y="0">s</tspan><tspan class="cls-171" x="65.43" y="0">p</tspan><tspan class="cls-172" x="93.19" y="0">i</tspan><tspan class="cls-173" x="104.27" y="0">r</tspan><tspan class="cls-174" x="121.36" y="0">a</tspan><tspan class="cls-175" x="148.47" y="0">t</tspan><tspan class="cls-176" x="164.44" y="0">i</tspan><tspan class="cls-177" x="175.6" y="0">o</tspan><tspan class="cls-178" x="203.83" y="0">n</tspan><tspan x="231.07" y="0">:</tspan></text><text class="cls-63" transform="translate(34.13 1484.2)"><tspan class="cls-179">A</tspan><tspan class="cls-180" x="31.91" y="0">c</tspan><tspan class="cls-181" x="58.65" y="0">t</tspan><tspan class="cls-182" x="74.69" y="0">u</tspan><tspan class="cls-65" x="102.18" y="0">a</tspan><tspan x="128.73" y="0">l </tspan><tspan class="cls-181" x="154.83" y="0">B</tspan><tspan class="cls-67" x="185.61" y="0">u</tspan><tspan class="cls-68" x="213.4" y="0">d</tspan><tspan class="cls-57" x="241.47" y="0">g</tspan><tspan class="cls-183" x="269.68" y="0">e</tspan><tspan class="cls-71" x="296.53" y="0">t</tspan><tspan x="313.31" y="0">:</tspan></text><line class="cls-167" x1="13.38" y1="373.52" x2="774.08" y2="373.61"/><line class="cls-167" x1="13.38" y1="359.52" x2="774.08" y2="359.61"/><line class="cls-167" x1="13.38" y1="1373.02" x2="774.08" y2="1373.11"/><line class="cls-167" x1="13.38" y1="1393.02" x2="774.08" y2="1393.11"/><line class="cls-167" x1="13.38" y1="1717.02" x2="774.08" y2="1717.11"/><path class="cls-184" d="M352.39,107.32a1.19,1.19,0,0,0-1.29,1.29,1.29,1.29,0,1,0,1.29-1.29Z"/><path class="cls-185" d="M264.76,690.72c-2.55,0-4.89.21-7.22.42-3,.21-6.16.64-8.5,1.91a4.93,4.93,0,0,0-2.12,4.25c0,3,1.7,6.59,3.82,7.86a19.55,19.55,0,0,0,9.77,2.34,29.23,29.23,0,0,0,9.56-1.7.74.74,0,0,0,.42-.21,9.74,9.74,0,0,0,2.76-1.7c1.7-1.7,2.55-7,2.12-9.35a3.66,3.66,0,0,0-2.12-2.55c-1.91-1.06-4.46-1.06-6.8-1.27h-1.7Zm-4.25,17.63a19.64,19.64,0,0,1-10.2-2.55c-2.34-1.28-4.25-5.31-4.25-8.5a5.56,5.56,0,0,1,2.55-5.1c2.34-1.49,5.74-1.91,8.92-2.12a58.88,58.88,0,0,1,8.71-.21h.21a17.34,17.34,0,0,1,7.22,1.27,5.42,5.42,0,0,1,2.55,3.19c.64,2.55-.42,8.29-2.34,10.2a8.92,8.92,0,0,1-3,1.91.74.74,0,0,0-.43.21,31.79,31.79,0,0,1-10,1.7"/><path class="cls-185" d="M297.27,690.51h-4c-2.34.21-4.89.21-6.8,1.28a5,5,0,0,0-2.12,2.55c-.42,2.34.64,7.44,2.34,9.14a5.92,5.92,0,0,0,2.76,1.49.74.74,0,0,1,.43.21,25.77,25.77,0,0,0,9.14,1.49,19.9,19.9,0,0,0,10.41-2.55c2.12-1.28,3.82-4.67,3.61-7.65a4.38,4.38,0,0,0-2.12-4,21.2,21.2,0,0,0-8.71-1.7,37.51,37.51,0,0,0-4.89-.21m1.7,17h0a33.11,33.11,0,0,1-9.35-1.49.74.74,0,0,1-.43-.21,8.34,8.34,0,0,1-3-1.7c-1.91-1.91-3-7.22-2.55-9.77a5.26,5.26,0,0,1,2.55-3.19c2.12-1.06,4.89-1.27,7.22-1.49h.21a62.51,62.51,0,0,1,8.92,0c2.55.21,6.37.43,8.92,1.91,1.7.85,2.55,2.55,2.55,4.89,0,3.19-1.7,7-4,8.5a22.35,22.35,0,0,1-11,2.55"/><path class="cls-185" d="M332.11,708.35c0-.43-.21-1.06-.21-1.49-.21-.43-.21-1.06-.43-1.49a.21.21,0,0,0-.21-.21l-.64-1.28a1.66,1.66,0,0,0-.85-.85c-.21-.21-.42-.21-.64-.42l-.21-.21c-.21-.21-.64-.21-.85-.42a1.92,1.92,0,0,0-1.06-.21.78.78,0,0,1-.64-.21.74.74,0,0,0-.42-.21,9.35,9.35,0,0,1-2.34-2.55,9.19,9.19,0,0,1-.85-1.49c-.43-.64-.64-1.27-1.06-1.91a.21.21,0,0,0-.21-.21,19.77,19.77,0,0,1-1.06-2.12c-1.7-3.4-3.4-7-4.46-9.56l-.64-1.27c-.21-.43-.21-.64-.43-1.06v-.21c0-.21-.21-.42-.21-.64-.64-2.12-2.55-11-2.76-13,0-.43-.21-.64-.21-1.06v-.42c0-.21-.21-.64-.21-.85a.21.21,0,0,0-.21-.21L310,662.25a.21.21,0,0,0-.21-.21l-.64-1.27v-.21L307.25,658c-.43-.42-.64-.85-1.06-1.27a8.63,8.63,0,0,0-2.12-1.91.21.21,0,0,1-.21-.21,5.55,5.55,0,0,0-1.49-.64l-.21-.21c-.43-.21-.64-.42-1.06-.42a51.35,51.35,0,0,0-10.2-2.76c.64-.64,1.06-1.27,1.7-1.91a.78.78,0,0,0,.21-.64c2.55-4.25,3-10.62,2.34-15.51a9,9,0,0,0-.42-2.34c-.21-.64-.21-1.49-.43-2.12a.74.74,0,0,0-.21-.43,13.53,13.53,0,0,1,5.74-1.49,4.68,4.68,0,0,1,1.7.21C324.89,631,333,667.56,334.45,675c1.7,9.14.64,22.52-2.34,33.36m-5.95,11.47v.64c-.64,4.25-2.34,6.59-5.1,6.59a4.05,4.05,0,0,1-3.19-1.27,2,2,0,0,0-2.34-1.06,2.59,2.59,0,0,0-1.7,1.91c-.43,9.35-10.62,26.77-20.18,31.66a.46.46,0,0,0-.42.43c-2.34,2.12-6.37,3.4-11.26,3.4s-9.77-1.49-12.11-3.4l-.42-.43c-9.35-4.46-20-18.7-23.8-31.66a2,2,0,0,0-1.91-1.49,2.15,2.15,0,0,0-1.91,1.28,2.24,2.24,0,0,1-2.12,1.7,2.69,2.69,0,0,1-1.28-.21,6.06,6.06,0,0,1-3-2.76,47.92,47.92,0,0,1-2.55-9.35c-.21-2.34-.21-5.1-.21-8.29.64-1.28,1.49-2.55,5.95-7l.43-.42c0-.21.21-.21.21-.43a5.33,5.33,0,0,1,.85-1.49c1.28-2.55,3-6.16,4.46-10a61.81,61.81,0,0,0,2.55-8.29c.85-2.76,1.7-5.74,2.76-8.5,2.12-5.52,4.46-9.77,8.07-13.39a16.65,16.65,0,0,1,7.22-4.67,23.68,23.68,0,0,1,5.74-.64,101,101,0,0,1,11.26,1.06c1.06.21,1.91.21,2.76.43H286c.42,0,.64.21,1.27.21a5.08,5.08,0,0,0,1.91.42,39.88,39.88,0,0,1,10.2,2.55c2.76,1.06,7.44,7.44,7.86,10.62a121.38,121.38,0,0,0,3,13.6,146.05,146.05,0,0,0,8.29,17.63c.85,1.49,3.82,6.16,7,6.37a1.44,1.44,0,0,1,1.28.64,1.62,1.62,0,0,1,.42,1.06c.21,2.34-.21,6.16-1.06,12.54M228.64,706c0,.21,0,.21-.21.42-.64,1.7-.64,5.95.21,10.84v.43c-.42-.64-.85-1.49-1.27-2.12a.21.21,0,0,0-.21-.21c-8.29-11.47-9.35-34-2.76-50.56a68.92,68.92,0,0,1,8.71-15.3,70,70,0,0,1,21.25-19.12c8.71-4.89,16.78-7.44,24.43-7.44a31.41,31.41,0,0,1,4.46.21c1.49.21,3.4,1.7,4.89,3.19a6.68,6.68,0,0,1,2.12,2.12,4.82,4.82,0,0,0,.21.85c1.06,4.46,1.06,10.84-.42,14.87A8.63,8.63,0,0,1,289,646.1a5.64,5.64,0,0,1-1.06,1.27,3.72,3.72,0,0,1-1.06.85,14.41,14.41,0,0,1-1.91,1.28,1.28,1.28,0,0,1-.85-.21c-.43,0-.85-.21-1.28-.21a70.35,70.35,0,0,0-11.9-1.28,23.48,23.48,0,0,0-7,.85,21.19,21.19,0,0,0-8.92,5.74,36.25,36.25,0,0,0-4.46,5.52,54.89,54.89,0,0,0-4.67,9.35,73.29,73.29,0,0,0-3,8.92c-.85,2.76-1.49,5.52-2.55,8.07-.64,1.49-1.06,2.76-1.7,4-1.27,3-2.55,5.31-3.4,7-4.25,4.89-5.52,6.37-6.59,8.71M338.7,674.15C330.62,631,309,623.37,302.37,622.1a10.32,10.32,0,0,0-2.55-.21A18.64,18.64,0,0,0,292,623.8c-2.12-2.55-5.1-4.67-7.86-5.1-9.35-1.28-20.18,1.27-31.44,7.86a73.09,73.09,0,0,0-22.52,20.18A67.25,67.25,0,0,0,221,662.89c-7.22,17.63-5.95,42.07,3,54.6a41.8,41.8,0,0,0,8.5,11c.21.21.42.21.64.43a13.87,13.87,0,0,0,3.4,2.76,6.93,6.93,0,0,0,6.16-.21c4.89,13,15.09,25.92,24.43,30.59,3.19,2.76,8.71,4.46,14.66,4.46,5.74,0,10.84-1.7,13.81-4.46,10-5.31,19.33-20.61,21.67-31.44a9.63,9.63,0,0,0,3.4.64c1.49,0,5.95-.42,8.29-6.16l.21-.21c8.5-10.84,12.11-37,9.56-50.78"/><path class="cls-185" d="M247.13,697.09c-1.91,0-4.46.43-6.16,0-.64-.21-2.76-.21-3.19.43-.42.85,1.28,1.27,1.7,1.49a31.45,31.45,0,0,0,8.92.21c.64,0,2.34-.21,1.91-1.06-.42-1.06-2.55-1.28-3.19-1.06m65.86.43a35.41,35.41,0,0,0,6.59-.43c.64,0,1.91-.42,1.06-1.27-.64-.85-2.55-.85-3.4-.85-1.7.21-3.4.21-5.31.42-.64,0-2.34,0-1.91,1.06.21,1.06,2.34,1.27,3,1.06M287.07,696c2.34,1.28-2.55,1.91-3.82,1.28a7.13,7.13,0,0,0-3-1.06c-1.7.43-3.19,1.28-5.1,1.49-.64,0-3,0-3.19-.85-.21-1.06,1.27-1.06,1.91-1.27,1.06,0,2.34-1.06,3.61-1.28a7.79,7.79,0,0,1,3.82-.21,13.13,13.13,0,0,1,5.74,1.91"/><path class="cls-185" d="M238.84,721.53a1.7,1.7,0,1,0,1.7,1.7,1.83,1.83,0,0,0-1.7-1.7m83.5,1.49a1.7,1.7,0,1,1-1.7-1.7,1.83,1.83,0,0,1,1.7,1.7"/><path class="cls-185" d="M319.58,709.42a5.48,5.48,0,0,1-.21,5.95c-.43.64,1.7,1.06,1.91.64a5.8,5.8,0,0,0,.21-6.37c-.21-.64-2.34-.64-1.91-.21M238,709.2c.21-.43,2.34,0,1.91.43a3.9,3.9,0,0,0,.85,4.89c.43.43-.21.43-.42.43-.43,0-1.06,0-1.28-.43A4,4,0,0,1,238,709.2"/><path class="cls-185" d="M304.49,723.65c-.64-.85-3.82-4.67-6.16-7.44-.43-.43-1.91-.85-1.49-.43a56.32,56.32,0,0,0,7,8.92c.43.64.64-1.06.64-1.06M259,725.56c-.43.42-2.12,0-1.49-.43a86.45,86.45,0,0,0,8.71-8.92c.42-.43,1.7-.85,1.27-.21-2.76,3.19-8.71,9.56-8.5,9.56"/><path class="cls-185" d="M282.82,641c-4.89-4.25-12.53-4.46-18.48-3.4-7.86,1.28-14.87,7.22-19.76,13.17-.85.85,3.19,1.91,4,1.06a43.77,43.77,0,0,1,12.11-10.41c4.89-2.76,13.81-3.82,18.48,0,.64.64,4.67.64,3.61-.43m32.08,28.26c2.34,8.07,7.44,14.45,13.81,20,.85.64,4.89.21,3.61-.85-5.95-5.1-11-11.26-13.17-19.12-.21-1.49-4.46-1.06-4.25,0m-89.66,24c-2.55.43-2.76-1.28-.21-1.7,6.8-1.06,9.35-9.14,11.69-14.45.42-1.06,4.67-1.27,4-.21-3.19,7.65-6.37,14.87-15.51,16.36"/><path class="cls-185" d="M261.57,696.24a.85.85,0,1,1,.85-.85.91.91,0,0,1-.85.85m-2.12-1.7a4.45,4.45,0,0,0-.85,2.34,6.21,6.21,0,0,0,.42,1.91,7.52,7.52,0,0,1-2.12-.43l-1.91-.64c-.21,0-.42-.21-.64-.21a6.63,6.63,0,0,1,2.34-1.91,7.53,7.53,0,0,1,1.91-.85H259a.66.66,0,0,1,.43-.21M272,698.16c-3.4-3.82-5.31-4.89-11.47-4.89-3.82,0-5.31,1.28-6.59,2.76a21,21,0,0,0-2.55,3.19c-1.06,1.49,1.06.85,1.49.21.21-.43.64-.85.85-1.28a12.83,12.83,0,0,0,6.37,1.49,17.68,17.68,0,0,0,4.67-.64c1.49-.42,3-.85,4.25-1.27,1.06-.43-1.06-.85-1.7-.64s-1.27.42-2.12.64c0-.21.21-.64.21-.85a3.25,3.25,0,0,0-.85-2.12c-.43,0-.43-.21,0,0,2.34,0,4.46,1.91,6.16,3.82.43.42,2.12.42,1.28-.43"/><path class="cls-185" d="M306,696.24c-.21-.21-.42-.21-.85-.21-.85.42-2.55.85-3.19,1.27a3.93,3.93,0,0,0,.43-1.49,3.41,3.41,0,0,0-1.06-2.34,3,3,0,0,1,1.27.42c.43.21.64.21.85.43h.21c.21.21.64.42.85.64l.21.21.85.85c.21,0,.21.21.42.21.21.21,0,.21,0,0m-7.44-1.06a.85.85,0,1,1,.85-.85.91.91,0,0,1-.85.85m-2.34,2.34a30.67,30.67,0,0,1-5.1-1.06h-.42a22.52,22.52,0,0,1,2.55-2.12,8.12,8.12,0,0,1,3.4-1.28,4.64,4.64,0,0,0-1.06,1.7v.64a2.82,2.82,0,0,0,.64,2.12m12.75.21c-1.91-2.34-3.19-3.82-4.46-4.46-1.7-1.06-2.55-1.7-6.37-1.49a9.77,9.77,0,0,0-6.59,2.12c-1.49.85-2.12,2.34-3.4,3.61-.64.64.85.42,1.27,0l.21-.21c.21,0,.21.21.43.21a36.51,36.51,0,0,0,7.22,1.27h3.19a9.54,9.54,0,0,0,5.74-2.12l.85.85c.42.21,2.34.64,1.91.21"/><path class="cls-185" d="M297.9,730.66l-3.19,1.27h-.21a6.61,6.61,0,0,1-1.27.85,4.68,4.68,0,0,1-1.7-.21h-.43a5.83,5.83,0,0,1-1.49.85,1.59,1.59,0,0,1-1.06-.21,1.59,1.59,0,0,0-1.06.21,3.33,3.33,0,0,1-2.12.85,4.47,4.47,0,0,1-2.55-.64.4.4,0,0,0-.64,0,4.12,4.12,0,0,1-2.34.64,5.4,5.4,0,0,1-2.55-.64c-.21,0-.42-.21-.42,0-.21,0-.85.43-1.49.21a4.51,4.51,0,0,1-1.49-.64c-.21,0-.21-.21-.42,0-.21,0-1.28.42-1.7.21a2.42,2.42,0,0,1-1.28-.64.66.66,0,0,0-.42-.21c-.21,0-3.4-1.06-5.31-1.49,0-.21-.21-.21-.42-.42.42-.21.85-.21,1.27-.43s1.7-.21,2.12-.42c.42,0,.85-.21,1.27.21,0,0,.21.64.43.64s.85-1.28,1.91-1.06c1.28,0,1.7,1.49,1.91,1.49s.64-1.49,1.7-1.49c1.7,0,1.49,1.49,1.7,1.49a6.81,6.81,0,0,1,.64-1.06c.85-1.28,3.4-.85,3.82-.21a1.1,1.1,0,0,1,.43.85s.21.64.42.64.21-.64.43-.85.21-.64.64-.85a3.7,3.7,0,0,1,3-.21c.21,0,.64.43.85.64a3,3,0,0,1,.43.85c.21,0,.64-1.49,1.7-1.49,1.27,0,1.49,1.49,1.7,1.49s.42-1.49,1.91-1.49c1.28,0,1.49.85,1.49.85.21,0,.42-.64.42-.85a.65.65,0,0,1,.85,0,10.65,10.65,0,0,1,3,.64,3.05,3.05,0,0,1-.43.64m-4.89,3.4c-3.19,1.91-7.86,2.34-11.47,2.34a53.49,53.49,0,0,1-10.41-1.49,14.47,14.47,0,0,1-4.46-2.12l3,.85.21.21a3.16,3.16,0,0,0,1.7.64,3.3,3.3,0,0,0,2.12-.21,12.63,12.63,0,0,0,1.7.85c.64,0,1.28-.21,1.7-.21a6.53,6.53,0,0,0,2.76.64,5.41,5.41,0,0,0,2.55-.64,5.69,5.69,0,0,0,2.76.64h.21a5.71,5.71,0,0,0,2.76-1.06,8,8,0,0,0,1.7.21,6.36,6.36,0,0,0,1.7-.85,2.84,2.84,0,0,0,1.91.21c.43-.64-.42-.21-.42,0m7-3.82c.21-.42-.64-1.49-1.49-1.91l-1.91-.64a12,12,0,0,0-2.55-.85c-2.34-.64-4.67-.85-7-1.28a13.89,13.89,0,0,0-3,0c-.43,0-2.34.43-2.34.43s-1.28-.21-2.12-.43a11.87,11.87,0,0,0-4.67.64c-1.91.43-3.82.85-5.52,1.28-1.28.42-2.76.64-4.89,1.27-1.06.21-1.28,1.91-.85,1.91a1.8,1.8,0,0,0,.64,1.06,7.32,7.32,0,0,0,1.7,1.91c1.49,1.28,5.52,4.89,9.77,6.37a21.64,21.64,0,0,0,11,0c3.4-.85,7.22-2.76,9.14-5.52a9.58,9.58,0,0,1,1.91-2.12,4,4,0,0,0,.64-.85c.43-.43.85-1.06,1.06-1.28Z"/><path class="cls-185" d="M269.22,689.23c.64-.64,1.28-2.12.43-2.55-1.06-.64-4.89-.85-7-.85a31.89,31.89,0,0,0-7.86.85,13.28,13.28,0,0,0-4.25,1.91c-.43.42-3.61,3-1.49,2.34,0,0,4.46-2.34,5.95-2.55a32,32,0,0,1,7.65.42c1.91.43,2.55.21,3.61.64,1.06.21,2.12.42,3-.21m21-.43a1.61,1.61,0,0,1,.43-2.76,22.47,22.47,0,0,1,6.59-1.28,33.65,33.65,0,0,1,8.07,1.06,14.29,14.29,0,0,1,4,1.91c1.28.85.64,1.27.64,1.27a17.19,17.19,0,0,0-3.82-1.7c-2.34-.42-5.95,0-8.5.43-2.12.42-3,.85-4,1.06-1.49.64-2.76.64-3.4,0"/><path class="cls-185" d="M185.3,781.44l-7.86,28.68h50.78l3.61-6.59L219.29,795,235,763.59ZM339.76,795l-12.54,8.5,3.61,6.59h50.78l-7.86-28.68L324,763.59Zm-35.27-45.47-.21,9.77-12.53,51h33.57l-4.25-7.86L333.6,794l-15.93-32.08-9.14-3.4.21-8.92Zm-55-5.74-.21,15.08-8.07,3L225.24,794l12.53,8.29-4.25,7.86h35.06l-15.3-52.05.43-14.23Z"/><path class="cls-185" d="M308.53,702.41a5,5,0,0,0-2.55-2.12c-.64-.21-1.49,0-.64.43a3.93,3.93,0,0,1,1.7,1.49c.21.64,1.7.85,1.49.21m-58.21.64c.85-.64,1.7-1.06,2.55-1.7.21-.21-.64-.64-.85-.42a10.65,10.65,0,0,0-2.55,1.7c-.21.21.64.64.85.43M248,700.28a9.27,9.27,0,0,0-5.31,3.19c-.42.43,1.49.85,1.91.43a8.49,8.49,0,0,1,4.67-3c.43,0,.43-.43,0-.64-.21-.21-.85,0-1.27,0m60.13-.21c-1.28-.43.42-.85,1.06-.64a11.89,11.89,0,0,1,5.1,3.61c.21.42-1.7.64-1.91,0a14,14,0,0,0-4.25-3"/><path class="cls-185" d="M295.14,716a4.29,4.29,0,0,1-3.19,2.34,5.78,5.78,0,0,1-1.91,0,16.23,16.23,0,0,1-3.61.21h-1.49c-.21.21-.43.21-.64.43a4.61,4.61,0,0,1-3,1.06h-.42a3.17,3.17,0,0,1-1.91-.85c-.21-.21-.42-.21-.64-.43h-2.12c-.64,0-1.28-.21-1.7-.21h-.43a2.35,2.35,0,0,1-1.7,0,3.4,3.4,0,0,1-2.76-1.91c-.85-1.91.21-4.89,1.49-7a2.92,2.92,0,0,1,1.7-1.06c.21,0,.21.21.42.21a.78.78,0,0,1-.21.64c-.85,1.28-2.34,4.89-1.27,6.59a2.15,2.15,0,0,0,1.49.85c.43,0,1.06-.21,1.49-.21a2.69,2.69,0,0,1,1.28-.21,5.21,5.21,0,0,1,2.55.85c.21,0,.42.21.64.43a3.07,3.07,0,0,0,.64.43,2.7,2.7,0,0,0,1.28.21,5.64,5.64,0,0,0,3-1.06,9.1,9.1,0,0,1,3.4-1.06h.85a10.67,10.67,0,0,0,2.55.43,2.6,2.6,0,0,0,1.91-.64,2.29,2.29,0,0,0,.43-1.7c0-1.7-1.28-3.19-2.34-4.67-.43-.64-.85-1.06-1.06-1.49,0-.21-.21-.21,0-.42l.21-.21a3.18,3.18,0,0,1,1.49.64c.21.21.42.43.42.64,1.49,1.49,4,4.89,3.19,7.22"/><path class="cls-186" d="M699.72,415.15H360.08a28.14,28.14,0,0,0-28.14,28.14V592.5a28.14,28.14,0,0,0,28.14,28.14h13.72l1,35.17,55.24-35.17H699.72a28.14,28.14,0,0,0,28.14-28.14V443.29a28.14,28.14,0,0,0-28.14-28.14"/><path class="cls-187" d="M699.72,415.15H360.08a28.14,28.14,0,0,0-28.14,28.14V592.5a28.14,28.14,0,0,0,28.14,28.14h13.72l1,35.17,55.24-35.17H699.72a28.14,28.14,0,0,0,28.14-28.14V443.29A28.14,28.14,0,0,0,699.72,415.15Z"/><text class="cls-188" transform="translate(350.45 461.09)">“</text><text class="cls-188" transform="translate(359.01 461.09)"> </text><text class="cls-188" transform="translate(359.01 461.09)"><tspan class="cls-189">Wh</tspan><tspan x="32.55" y="0">en </tspan><tspan class="cls-189" x="62.94" y="0">a</tspan><tspan class="cls-190" x="75.24" y="0">n</tspan><tspan x="87.6" y="0">y </tspan><tspan class="cls-191" x="104.57" y="0">h</tspan><tspan class="cls-192" x="117.16" y="0">a</tspan><tspan class="cls-191" x="129.46" y="0">r</tspan><tspan class="cls-193" x="136.95" y="0">d </tspan><tspan class="cls-194" x="155.4" y="0">h</tspan><tspan class="cls-195" x="168.08" y="0">i</tspan><tspan class="cls-193" x="173.65" y="0">t </tspan><tspan class="cls-196" x="187.07" y="0">c</tspan><tspan class="cls-197" x="198.99" y="0">o</tspan><tspan class="cls-194" x="211.73" y="0">m</tspan><tspan class="cls-198" x="231.31" y="0">e</tspan><tspan x="243.03" y="0">s </tspan><tspan class="cls-199" x="260.45" y="0">..</tspan><tspan x="271.4" y="0">. </tspan><tspan class="cls-200" x="283.06" y="0">h</tspan><tspan class="cls-201" x="295.64" y="0">a</tspan><tspan class="cls-192" x="307.5" y="0">v</tspan><tspan class="cls-202" x="318.74" y="0">i</tspan><tspan class="cls-203" x="324.25" y="0">n</tspan><tspan x="336.95" y="0">g </tspan></text><text class="cls-188" transform="translate(359.01 492.7)"><tspan class="cls-204">s</tspan><tspan class="cls-201" x="11.63" y="0">a</tspan><tspan class="cls-189" x="23.48" y="0">v</tspan><tspan class="cls-204" x="34.72" y="0">i</tspan><tspan class="cls-205" x="40.23" y="0">n</tspan><tspan class="cls-200" x="52.93" y="0">g</tspan><tspan x="65.52" y="0">s </tspan><tspan class="cls-206" x="82.94" y="0">m</tspan><tspan class="cls-198" x="102.52" y="0">e</tspan><tspan class="cls-192" x="114.23" y="0">a</tspan><tspan class="cls-207" x="126.53" y="0">n</tspan><tspan x="139.07" y="0">s </tspan><tspan class="cls-208" x="156.5" y="0">t</tspan><tspan class="cls-189" x="163.96" y="0">h</tspan><tspan x="176.68" y="0">e</tspan><tspan class="cls-209" x="188.63" y="0">r</tspan><tspan x="196.05" y="0">e </tspan><tspan class="cls-189" x="213.6" y="0">a</tspan><tspan class="cls-210" x="225.91" y="0">r</tspan><tspan x="233.31" y="0">e </tspan><tspan class="cls-197" x="250.86" y="0">o</tspan><tspan class="cls-200" x="263.6" y="0">p</tspan><tspan class="cls-211" x="276.19" y="0">t</tspan><tspan class="cls-212" x="283.57" y="0">i</tspan><tspan class="cls-197" x="289.1" y="0">o</tspan><tspan class="cls-213" x="301.84" y="0">n</tspan><tspan class="cls-192" x="314.38" y="0">s</tspan><tspan x="326.08" y="0">. </tspan></text><text class="cls-188" transform="translate(359.01 524.32)"><tspan class="cls-214">H</tspan><tspan class="cls-201" x="15.75" y="0">a</tspan><tspan class="cls-189" x="27.6" y="0">v</tspan><tspan class="cls-204" x="38.84" y="0">i</tspan><tspan class="cls-215" x="44.35" y="0">n</tspan><tspan class="cls-193" x="57.05" y="0">g </tspan><tspan class="cls-216" x="75.5" y="0">d</tspan><tspan x="88.2" y="0">e</tspan><tspan class="cls-200" x="100.14" y="0">b</tspan><tspan x="112.72" y="0">t </tspan><tspan class="cls-204" x="126.14" y="0">m</tspan><tspan class="cls-198" x="145.7" y="0">e</tspan><tspan class="cls-189" x="157.41" y="0">a</tspan><tspan class="cls-213" x="169.71" y="0">n</tspan><tspan x="182.26" y="0">s </tspan><tspan class="cls-217" x="199.68" y="0">y</tspan><tspan class="cls-215" x="210.54" y="0">o</tspan><tspan class="cls-218" x="223.24" y="0">u</tspan><tspan class="cls-219" x="236.11" y="0">’</tspan><tspan class="cls-220" x="239.89" y="0">r</tspan><tspan x="247.31" y="0">e </tspan><tspan class="cls-221" x="264.87" y="0">a</tspan><tspan class="cls-204" x="277.08" y="0">l</tspan><tspan class="cls-220" x="282.59" y="0">r</tspan><tspan class="cls-198" x="290.01" y="0">e</tspan><tspan class="cls-204" x="301.73" y="0">a</tspan><tspan class="cls-222" x="313.96" y="0">d</tspan><tspan class="cls-223" x="326.77" y="0">y </tspan></text><path class="cls-224" d="M361.49,555.93V545.61h-1.86V544h1.86v-1.51a4.09,4.09,0,0,1,1-2.95,3.67,3.67,0,0,1,2.78-1,4.81,4.81,0,0,1,.76.06q.38.06.84.17l-.26,1.65-.48-.08a5.05,5.05,0,0,0-.59,0,1.71,1.71,0,0,0-1.41.57,2.55,2.55,0,0,0-.46,1.65V544h2.48v1.61h-2.48v10.32Zm9.24,0h-2.17v-17.2h2.17Zm10.46,0q-.11-.54-.17-1a7,7,0,0,1-.07-.83,5.07,5.07,0,0,1-1.58,1.44,4,4,0,0,1-2.1.58,3.9,3.9,0,0,1-2.84-1,3.51,3.51,0,0,1-1-2.63,3.08,3.08,0,0,1,1.38-2.67,6.46,6.46,0,0,1,3.75-1h2.36v-1.18a2.19,2.19,0,0,0-.64-1.66,2.51,2.51,0,0,0-1.81-.61,2.61,2.61,0,0,0-1.7.53,1.61,1.61,0,0,0-.66,1.28h-2.07l0-.07a2.89,2.89,0,0,1,1.23-2.38,5,5,0,0,1,3.35-1.08,4.93,4.93,0,0,1,3.26,1,3.65,3.65,0,0,1,1.23,3v5.74a11.18,11.18,0,0,0,.07,1.23,6.34,6.34,0,0,0,.24,1.17Zm-3.61-1.6a3.87,3.87,0,0,0,2.13-.6,2.88,2.88,0,0,0,1.23-1.39v-1.94h-2.44a3.17,3.17,0,0,0-2.1.66,2,2,0,0,0-.79,1.55,1.63,1.63,0,0,0,.5,1.25A2.08,2.08,0,0,0,377.58,554.33Zm11.34-13.21V544h2.26v1.61h-2.26v7.24a1.62,1.62,0,0,0,.35,1.18,1.26,1.26,0,0,0,.92.34,2.17,2.17,0,0,0,.41,0,2.52,2.52,0,0,0,.4-.11l.29,1.49a1.92,1.92,0,0,1-.71.33,3.6,3.6,0,0,1-.94.13,2.81,2.81,0,0,1-2.11-.8,3.47,3.47,0,0,1-.78-2.51v-7.24h-1.9V544h1.9v-2.88Zm17.9,14.81q-.11-.54-.17-1a7,7,0,0,1-.07-.83,5.07,5.07,0,0,1-1.58,1.44,4,4,0,0,1-2.1.58,3.9,3.9,0,0,1-2.84-1,3.51,3.51,0,0,1-1-2.63,3.08,3.08,0,0,1,1.38-2.67,6.46,6.46,0,0,1,3.75-1h2.36v-1.18a2.19,2.19,0,0,0-.64-1.66,2.51,2.51,0,0,0-1.81-.61,2.61,2.61,0,0,0-1.7.53,1.61,1.61,0,0,0-.66,1.28H399.7l0-.07a2.89,2.89,0,0,1,1.23-2.38,5,5,0,0,1,3.35-1.08,4.93,4.93,0,0,1,3.26,1,3.65,3.65,0,0,1,1.23,3v5.74a11.18,11.18,0,0,0,.07,1.23,6.34,6.34,0,0,0,.24,1.17Zm-3.61-1.6a3.87,3.87,0,0,0,2.13-.6,2.88,2.88,0,0,0,1.23-1.39v-1.94h-2.44a3.17,3.17,0,0,0-2.1.66,2,2,0,0,0-.79,1.55,1.63,1.63,0,0,0,.5,1.25A2.08,2.08,0,0,0,403.22,554.33Zm8-4.15a7.83,7.83,0,0,1,1.26-4.64,4,4,0,0,1,3.47-1.76,4.19,4.19,0,0,1,2,.46,3.93,3.93,0,0,1,1.43,1.32l.26-1.55h1.73v12a4.55,4.55,0,0,1-1.33,3.52,5.48,5.48,0,0,1-3.85,1.23,8.07,8.07,0,0,1-1.86-.24,7.27,7.27,0,0,1-1.76-.65l.55-1.69a5.58,5.58,0,0,0,1.41.53,6.8,6.8,0,0,0,1.63.2,3.16,3.16,0,0,0,2.31-.72,3,3,0,0,0,.72-2.2v-1.35a3.79,3.79,0,0,1-1.4,1.13,4.39,4.39,0,0,1-1.87.38,4.16,4.16,0,0,1-3.45-1.59,6.5,6.5,0,0,1-1.26-4.16Zm2.17.23a5,5,0,0,0,.76,2.89,2.63,2.63,0,0,0,2.32,1.09,2.87,2.87,0,0,0,1.64-.45,3.39,3.39,0,0,0,1.09-1.26V547.2a3.37,3.37,0,0,0-1.09-1.21,2.86,2.86,0,0,0-1.62-.45,2.53,2.53,0,0,0-2.33,1.3,6.48,6.48,0,0,0-.77,3.34Zm18.26,5.51q-.11-.54-.17-1a7,7,0,0,1-.07-.83,5.07,5.07,0,0,1-1.58,1.44,4,4,0,0,1-2.1.58,3.9,3.9,0,0,1-2.84-1,3.51,3.51,0,0,1-1-2.63,3.08,3.08,0,0,1,1.38-2.67,6.46,6.46,0,0,1,3.75-1h2.36v-1.18a2.19,2.19,0,0,0-.64-1.66,2.51,2.51,0,0,0-1.81-.61,2.61,2.61,0,0,0-1.7.53,1.61,1.61,0,0,0-.66,1.28h-2.07l0-.07a2.89,2.89,0,0,1,1.23-2.38,5,5,0,0,1,3.35-1.08,4.93,4.93,0,0,1,3.26,1,3.65,3.65,0,0,1,1.23,3v5.74a11.18,11.18,0,0,0,.07,1.23,6.34,6.34,0,0,0,.24,1.17Zm-3.61-1.6a3.87,3.87,0,0,0,2.13-.6,2.88,2.88,0,0,0,1.23-1.39v-1.94H429a3.17,3.17,0,0,0-2.1.66,2,2,0,0,0-.79,1.55,1.63,1.63,0,0,0,.5,1.25A2.08,2.08,0,0,0,428,554.33Zm10.84-13.39h-2.17v-2.22h2.17Zm0,15h-2.17V544h2.17ZM444,544l.15,1.78a4.33,4.33,0,0,1,1.49-1.47,4,4,0,0,1,2-.52,3.89,3.89,0,0,1,3,1.13,5,5,0,0,1,1.06,3.49v7.53h-2.17v-7.49a3.23,3.23,0,0,0-.62-2.24,2.5,2.5,0,0,0-1.9-.66,3.06,3.06,0,0,0-1.66.45,3.3,3.3,0,0,0-1.15,1.23v8.7H442V544Zm17.53,8.75a1.48,1.48,0,0,0-.55-1.18,5.13,5.13,0,0,0-2.07-.8,8.7,8.7,0,0,1-3.27-1.28,2.6,2.6,0,0,1-1.1-2.21,3.11,3.11,0,0,1,1.23-2.48,5.62,5.62,0,0,1,6.53,0,3.16,3.16,0,0,1,1.17,2.6l0,.07h-2.07a1.9,1.9,0,0,0-.66-1.41,2.42,2.42,0,0,0-1.74-.62,2.51,2.51,0,0,0-1.72.51,1.59,1.59,0,0,0-.56,1.22,1.36,1.36,0,0,0,.5,1.11,5.14,5.14,0,0,0,2,.73,8.7,8.7,0,0,1,3.36,1.32,2.66,2.66,0,0,1,1.1,2.23,3.08,3.08,0,0,1-1.28,2.57,5.38,5.38,0,0,1-3.36,1,5.24,5.24,0,0,1-3.59-1.16,3.3,3.3,0,0,1-1.25-2.7l0-.07h2.07a2,2,0,0,0,.86,1.68,3.34,3.34,0,0,0,1.89.53,3.07,3.07,0,0,0,1.81-.47A1.44,1.44,0,0,0,461.51,552.76Zm7.69-11.63V544h2.26v1.61H469.2v7.24a1.62,1.62,0,0,0,.35,1.18,1.26,1.26,0,0,0,.92.34,2.17,2.17,0,0,0,.41,0,2.52,2.52,0,0,0,.4-.11l.29,1.49a1.92,1.92,0,0,1-.71.33,3.6,3.6,0,0,1-.94.13,2.81,2.81,0,0,1-2.11-.8,3.47,3.47,0,0,1-.78-2.51v-7.24h-1.9V544H467v-2.88Zm13.44,0V544h2.26v1.61h-2.26v7.24A1.62,1.62,0,0,0,483,554a1.26,1.26,0,0,0,.92.34,2.17,2.17,0,0,0,.41,0,2.52,2.52,0,0,0,.4-.11l.29,1.49a1.92,1.92,0,0,1-.71.33,3.6,3.6,0,0,1-.94.13,2.81,2.81,0,0,1-2.11-.8,3.47,3.47,0,0,1-.78-2.51v-7.24h-1.9V544h1.9v-2.88Zm6.75,4.48a4.4,4.4,0,0,1,1.52-1.34,4.16,4.16,0,0,1,2-.48,3.85,3.85,0,0,1,3,1.15,5,5,0,0,1,1.06,3.53v7.48h-2.17v-7.5a3.19,3.19,0,0,0-.63-2.18,2.41,2.41,0,0,0-1.89-.71,3.21,3.21,0,0,0-1.64.42,3.54,3.54,0,0,0-1.21,1.15v8.81H487.2v-17.2h2.17Zm15.48,10.56a5,5,0,0,1-4-1.66,6.25,6.25,0,0,1-1.47-4.31v-.49a6.12,6.12,0,0,1,1.52-4.24,4.67,4.67,0,0,1,3.59-1.69,4.52,4.52,0,0,1,3.65,1.46,5.8,5.8,0,0,1,1.23,3.88v1.36h-7.74l0,.05a4.69,4.69,0,0,0,.87,2.82,2.78,2.78,0,0,0,2.35,1.11,5.47,5.47,0,0,0,1.94-.31,4.45,4.45,0,0,0,1.44-.87l.85,1.41a5,5,0,0,1-1.69,1.05A6.79,6.79,0,0,1,504.86,556.16Zm-.33-10.67a2.36,2.36,0,0,0-1.86.92,4.34,4.34,0,0,0-.95,2.3l0,.05h5.5v-.29a3.31,3.31,0,0,0-.68-2.13A2.44,2.44,0,0,0,504.53,545.49Zm16,6.1.25,1.44h.07l.31-1.44,2.38-7.59h1.74l2.39,7.59.34,1.61h.07l.32-1.61,1.87-7.59h2.16L529,555.93h-1.75l-2.3-7.27-.5-2h-.07l-.47,2-2.27,7.27h-1.75L516.4,544h2.16Zm20.78,4.34q-.11-.54-.17-1a7,7,0,0,1-.07-.83,5.07,5.07,0,0,1-1.58,1.44,4,4,0,0,1-2.1.58,3.9,3.9,0,0,1-2.84-1,3.51,3.51,0,0,1-1-2.63A3.08,3.08,0,0,1,535,549.9a6.46,6.46,0,0,1,3.75-1h2.36v-1.18a2.19,2.19,0,0,0-.64-1.66,2.51,2.51,0,0,0-1.81-.61,2.61,2.61,0,0,0-1.7.53,1.61,1.61,0,0,0-.66,1.28h-2.07l0-.07a2.89,2.89,0,0,1,1.23-2.38,5,5,0,0,1,3.35-1.08,4.93,4.93,0,0,1,3.26,1,3.65,3.65,0,0,1,1.23,3v5.74a11.18,11.18,0,0,0,.07,1.23,6.34,6.34,0,0,0,.24,1.17Zm-3.61-1.6a3.87,3.87,0,0,0,2.13-.6,2.88,2.88,0,0,0,1.23-1.39v-1.94h-2.44a3.17,3.17,0,0,0-2.1.66,2,2,0,0,0-.79,1.55,1.63,1.63,0,0,0,.5,1.25A2.08,2.08,0,0,0,537.71,554.33Zm10.84,1.6h-2.17v-17.2h2.17Zm5.41,0h-2.17v-17.2h2.17Zm5.28-.53-1.65,3.37h-1.29l.77-3.48v-1.8h2.17Zm15.51.53q-.11-.54-.17-1a7,7,0,0,1-.07-.83,5.07,5.07,0,0,1-1.58,1.44,4,4,0,0,1-2.1.58,3.9,3.9,0,0,1-2.84-1,3.51,3.51,0,0,1-1-2.63,3.08,3.08,0,0,1,1.38-2.67,6.46,6.46,0,0,1,3.75-1h2.36v-1.18a2.19,2.19,0,0,0-.64-1.66,2.51,2.51,0,0,0-1.81-.61,2.61,2.61,0,0,0-1.7.53,1.61,1.61,0,0,0-.66,1.28h-2.07l0-.07a2.89,2.89,0,0,1,1.23-2.38,5,5,0,0,1,3.35-1.08,4.93,4.93,0,0,1,3.26,1,3.65,3.65,0,0,1,1.23,3v5.74a11.18,11.18,0,0,0,.07,1.23,6.34,6.34,0,0,0,.24,1.17Zm-3.61-1.6a3.87,3.87,0,0,0,2.13-.6,2.88,2.88,0,0,0,1.23-1.39v-1.94h-2.44a3.17,3.17,0,0,0-2.1.66,2,2,0,0,0-.79,1.55,1.63,1.63,0,0,0,.5,1.25A2.08,2.08,0,0,0,571.13,554.33ZM581.63,544l.15,1.78a4.33,4.33,0,0,1,1.49-1.47,4,4,0,0,1,2-.52,3.89,3.89,0,0,1,3,1.13,5,5,0,0,1,1.06,3.49v7.53H587.2v-7.49a3.23,3.23,0,0,0-.62-2.24,2.5,2.5,0,0,0-1.9-.66A3.06,3.06,0,0,0,583,546a3.3,3.3,0,0,0-1.15,1.23v8.7h-2.17V544Zm10.27,6.19a8,8,0,0,1,1.23-4.64,4,4,0,0,1,3.45-1.76,4.27,4.27,0,0,1,1.86.39,3.81,3.81,0,0,1,1.38,1.12v-6.56H602v17.2h-1.78l-.25-1.47a3.87,3.87,0,0,1-1.43,1.27,4.31,4.31,0,0,1-2,.43,4.09,4.09,0,0,1-3.42-1.58,6.57,6.57,0,0,1-1.23-4.16Zm2.17.23a5.06,5.06,0,0,0,.74,2.89,2.58,2.58,0,0,0,2.29,1.09,2.88,2.88,0,0,0,1.63-.44,3.29,3.29,0,0,0,1.08-1.23v-5.57a3.35,3.35,0,0,0-1.09-1.17,2.87,2.87,0,0,0-1.6-.44,2.48,2.48,0,0,0-2.31,1.29,6.66,6.66,0,0,0-.74,3.35ZM612.79,544l.15,1.78a4.33,4.33,0,0,1,1.49-1.47,4,4,0,0,1,2-.52,3.89,3.89,0,0,1,3,1.13,5,5,0,0,1,1.06,3.49v7.53h-2.17v-7.49a3.23,3.23,0,0,0-.62-2.24,2.5,2.5,0,0,0-1.9-.66,3.06,3.06,0,0,0-1.66.45,3.3,3.3,0,0,0-1.15,1.23v8.7h-2.17V544ZM623,549.86a6.57,6.57,0,0,1,1.43-4.36,5.31,5.31,0,0,1,7.81,0,6.55,6.55,0,0,1,1.44,4.37v.24a6.54,6.54,0,0,1-1.43,4.37,5.34,5.34,0,0,1-7.81,0A6.52,6.52,0,0,1,623,550.1Zm2.17.24a5.65,5.65,0,0,0,.8,3.13,2.89,2.89,0,0,0,4.74,0,5.62,5.62,0,0,0,.8-3.13v-.24a5.6,5.6,0,0,0-.81-3.12,2.66,2.66,0,0,0-2.38-1.24,2.62,2.62,0,0,0-2.35,1.24,5.66,5.66,0,0,0-.8,3.12Zm13.76,1.49.25,1.44h.07l.31-1.44,2.38-7.59h1.74l2.39,7.59.34,1.61h.07l.32-1.61,1.87-7.59h2.16l-3.46,11.93h-1.75l-2.3-7.27-.5-2h-.07l-.47,2L640,555.93h-1.75L634.8,544H637Zm22-10.64h-2.17v-2.22h2.17Zm0,15h-2.17V544h2.17ZM667,541.12V544h2.26v1.61H667v7.24a1.62,1.62,0,0,0,.35,1.18,1.26,1.26,0,0,0,.92.34,2.17,2.17,0,0,0,.41,0,2.52,2.52,0,0,0,.4-.11l.29,1.49a1.92,1.92,0,0,1-.71.33,3.6,3.6,0,0,1-.94.13,2.81,2.81,0,0,1-2.11-.8,3.47,3.47,0,0,1-.78-2.51v-7.24h-1.9V544h1.9v-2.88Zm7.59-.26-1.76,3.82h-1.07l.66-3.78v-2.16h2.17Zm8.38,11.9a1.48,1.48,0,0,0-.55-1.18,5.13,5.13,0,0,0-2.07-.8,8.7,8.7,0,0,1-3.27-1.28,2.6,2.6,0,0,1-1.1-2.21,3.11,3.11,0,0,1,1.23-2.48,5.62,5.62,0,0,1,6.53,0,3.16,3.16,0,0,1,1.17,2.6l0,.07h-2.07a1.9,1.9,0,0,0-.66-1.41,2.42,2.42,0,0,0-1.74-.62,2.51,2.51,0,0,0-1.72.51,1.59,1.59,0,0,0-.56,1.22,1.36,1.36,0,0,0,.5,1.11,5.14,5.14,0,0,0,2,.73,8.7,8.7,0,0,1,3.36,1.32,2.66,2.66,0,0,1,1.1,2.23,3.08,3.08,0,0,1-1.28,2.57,5.38,5.38,0,0,1-3.36,1A5.24,5.24,0,0,1,676.9,555a3.3,3.3,0,0,1-1.25-2.7l0-.07h2.07a2,2,0,0,0,.86,1.68,3.34,3.34,0,0,0,1.89.53,3.07,3.07,0,0,0,1.81-.47A1.44,1.44,0,0,0,683,552.76Z"/><text class="cls-188" transform="translate(359.01 587.54)"><tspan class="cls-204">j</tspan><tspan class="cls-200" x="5.66" y="0">u</tspan><tspan class="cls-225" x="18.25" y="0">s</tspan><tspan class="cls-193" x="30.01" y="0">t </tspan><tspan class="cls-226" x="43.43" y="0">g</tspan><tspan class="cls-206" x="56.18" y="0">o</tspan><tspan class="cls-204" x="68.85" y="0">i</tspan><tspan class="cls-216" x="74.36" y="0">n</tspan><tspan x="87.06" y="0">g </tspan><tspan class="cls-227" x="105.51" y="0">t</tspan><tspan class="cls-193" x="112.61" y="0">o </tspan><tspan class="cls-226" x="131.06" y="0">g</tspan><tspan class="cls-228" x="143.8" y="0">e</tspan><tspan x="155.72" y="0">t </tspan><tspan class="cls-200" x="169.14" y="0">h</tspan><tspan class="cls-189" x="181.73" y="0">a</tspan><tspan class="cls-191" x="194.03" y="0">r</tspan><tspan class="cls-216" x="201.52" y="0">d</tspan><tspan x="214.22" y="0">e</tspan><tspan class="cls-229" x="226.16" y="0">r</tspan><tspan class="cls-230" x="232.55" y="0">.</tspan><tspan class="cls-193" x="237.41" y="0">”</tspan></text></g><g id="lines"><line class="cls-231" x1="33.94" y1="964.13" x2="34.25" y2="1338.29"/><line class="cls-231" x1="392.44" y1="963.86" x2="392.75" y2="1338.02"/><line class="cls-231" x1="608.44" y1="963.7" x2="608.75" y2="1337.86"/><line class="cls-231" x1="752.1" y1="963.59" x2="752.31" y2="1336.02"/></g><g id="Text"><text class="cls-232" transform="translate(44.49 1122.7)"><tspan class="cls-233">F</tspan><tspan class="cls-234" x="11.51" y="0">i</tspan><tspan class="cls-235" x="16.86" y="0">x</tspan><tspan class="cls-236" x="26.84" y="0">e</tspan><tspan x="38.12" y="0">d </tspan><tspan class="cls-237" x="55.52" y="0">c</tspan><tspan class="cls-30" x="66.62" y="0">o</tspan><tspan class="cls-238" x="78.47" y="0">s</tspan><tspan class="cls-239" x="89.52" y="0">t</tspan><tspan x="96.43" y="0">s </tspan><tspan class="cls-240" x="112.86" y="0">w</tspan><tspan class="cls-241" x="128.39" y="0">h</tspan><tspan class="cls-242" x="139.76" y="0">i</tspan><tspan class="cls-243" x="145.07" y="0">c</tspan><tspan x="156.13" y="0">h </tspan><tspan class="cls-56" x="173.22" y="0">y</tspan><tspan class="cls-244" x="182.87" y="0">o</tspan><tspan x="194.79" y="0">u </tspan><tspan class="cls-245" x="211.89" y="0">n</tspan><tspan class="cls-246" x="223.38" y="0">e</tspan><tspan class="cls-236" x="234.59" y="0">e</tspan><tspan x="245.87" y="0">d </tspan><tspan class="cls-247" x="263.27" y="0">t</tspan><tspan x="269.96" y="0">o </tspan><tspan class="cls-248" x="287.5" y="0">l</tspan><tspan class="cls-249" x="292.74" y="0">i</tspan><tspan class="cls-250" x="298.12" y="0">v</tspan><tspan x="307.94" y="0">e</tspan><tspan class="cls-251"><tspan x="0" y="30">- </tspan><tspan class="cls-252" x="8.59" y="30">Mo</tspan><tspan class="cls-253" x="31.17" y="30">r</tspan><tspan class="cls-254" x="37.15" y="30">t</tspan><tspan class="cls-255" x="42.27" y="30">g</tspan><tspan class="cls-256" x="50.98" y="30">a</tspan><tspan class="cls-257" x="59.5" y="30">g</tspan><tspan x="68.35" y="30">e </tspan><tspan class="cls-258" x="80.9" y="30">o</tspan><tspan x="89.91" y="30">r </tspan><tspan class="cls-259" x="99.51" y="30">r</tspan><tspan class="cls-260" x="104.91" y="30">e</tspan><tspan class="cls-261" x="113.38" y="30">n</tspan><tspan x="122.1" y="30">t</tspan><tspan x="0" y="60">- </tspan><tspan class="cls-262" x="8.59" y="60">U</tspan><tspan class="cls-151" x="18.98" y="60">t</tspan><tspan class="cls-263" x="24.11" y="60">i</tspan><tspan class="cls-264" x="28.07" y="60">l</tspan><tspan class="cls-265" x="32.03" y="60">i</tspan><tspan class="cls-151" x="36.21" y="60">t</tspan><tspan class="cls-266" x="41.34" y="60">i</tspan><tspan class="cls-30" x="45.33" y="60">e</tspan><tspan x="53.61" y="60">s </tspan><tspan class="cls-267" x="65.93" y="60">(</tspan><tspan class="cls-268" x="71.46" y="60">g</tspan><tspan class="cls-269" x="80.17" y="60">a</tspan><tspan class="cls-270" x="88.53" y="60">s</tspan><tspan x="96.82" y="60">, </tspan><tspan class="cls-271" x="104.47" y="60">w</tspan><tspan x="115.9" y="60">a</tspan><tspan class="cls-272" x="124.53" y="60">t</tspan><tspan class="cls-260" x="129.63" y="60">e</tspan><tspan class="cls-273" x="138.1" y="60">r</tspan><tspan x="142.91" y="60">, e</tspan><tspan class="cls-274" x="158.99" y="60">l</tspan><tspan class="cls-275" x="163.04" y="60">e</tspan><tspan class="cls-276" x="171.5" y="60">c</tspan><tspan class="cls-277" x="180.02" y="60">t</tspan><tspan class="cls-278" x="185.21" y="60">r</tspan><tspan class="cls-279" x="190.65" y="60">i</tspan><tspan class="cls-280" x="194.67" y="60">c</tspan><tspan x="202.3" y="60">)</tspan><tspan x="0" y="90">- </tspan><tspan class="cls-281" x="8.59" y="90">H</tspan><tspan class="cls-282" x="19.71" y="90">e</tspan><tspan class="cls-283" x="27.98" y="90">a</tspan><tspan class="cls-284" x="36.47" y="90">l</tspan><tspan class="cls-277" x="40.65" y="90">t</tspan><tspan x="45.84" y="90">h </tspan><tspan class="cls-285" x="58.65" y="90">i</tspan><tspan class="cls-286" x="62.68" y="90">n</tspan><tspan class="cls-287" x="71.2" y="90">s</tspan><tspan class="cls-288" x="79.26" y="90">u</tspan><tspan class="cls-289" x="87.91" y="90">r</tspan><tspan class="cls-290" x="93.33" y="90">a</tspan><tspan class="cls-291" x="101.87" y="90">n</tspan><tspan class="cls-292" x="110.55" y="90">c</tspan><tspan x="118.89" y="90">e &amp; </tspan><tspan class="cls-293" x="145.34" y="90">o</tspan><tspan class="cls-294" x="154.32" y="90">u</tspan><tspan class="cls-295" x="163.12" y="90">t</tspan><tspan class="cls-296" x="168.33" y="90">-</tspan><tspan class="cls-297" x="173.31" y="90">o</tspan><tspan class="cls-298" x="182.11" y="90">f</tspan><tspan class="cls-299" x="187.59" y="90">-</tspan><tspan class="cls-292" x="192.44" y="90">p</tspan><tspan x="201.34" y="90">o</tspan><tspan class="cls-300" x="210.37" y="90">c</tspan><tspan class="cls-301" x="218.71" y="90">k</tspan><tspan class="cls-302" x="226.49" y="90">e</tspan><tspan x="235.04" y="90">t </tspan><tspan class="cls-303" x="244.48" y="90">e</tspan><tspan class="cls-304" x="252.84" y="90">x</tspan><tspan class="cls-305" x="260.71" y="90">p</tspan><tspan class="cls-306" x="269.63" y="90">e</tspan><tspan class="cls-307" x="278.1" y="90">n</tspan><tspan class="cls-308" x="286.8" y="90">d</tspan><tspan class="cls-265" x="295.59" y="90">i</tspan><tspan class="cls-279" x="299.77" y="90">t</tspan><tspan class="cls-288" x="304.98" y="90">u</tspan><tspan class="cls-259" x="313.63" y="90">r</tspan><tspan class="cls-30" x="319.03" y="90">e</tspan><tspan x="327.31" y="90">s</tspan><tspan x="0" y="120">- </tspan><tspan class="cls-252" x="8.59" y="120">G</tspan><tspan class="cls-259" x="19.2" y="120">r</tspan><tspan x="24.6" y="120">o</tspan><tspan class="cls-292" x="33.63" y="120">c</tspan><tspan class="cls-260" x="41.97" y="120">e</tspan><tspan class="cls-309" x="50.44" y="120">r</tspan><tspan class="cls-266" x="55.88" y="120">i</tspan><tspan class="cls-30" x="59.88" y="120">e</tspan><tspan x="68.15" y="120">s </tspan><tspan class="cls-310" x="80.48" y="120">(</tspan><tspan class="cls-271" x="85.27" y="120">a</tspan><tspan class="cls-311" x="93.63" y="120">s</tspan><tspan class="cls-287" x="101.76" y="120">s</tspan><tspan class="cls-288" x="109.82" y="120">um</tspan><tspan class="cls-30" x="131.97" y="120">e</tspan><tspan x="140.25" y="120">s </tspan><tspan class="cls-312" x="152.57" y="120">f</tspan><tspan class="cls-313" x="158" y="120">o</tspan><tspan x="167" y="120">od </tspan><tspan class="cls-314" x="189.09" y="120">i</tspan><tspan x="192.99" y="120">s </tspan><tspan class="cls-315" x="205.31" y="120">p</tspan><tspan class="cls-274" x="214.2" y="120">r</tspan><tspan class="cls-306" x="219.6" y="120">e</tspan><tspan class="cls-316" x="228.08" y="120">p</tspan><tspan class="cls-317" x="236.79" y="120">a</tspan><tspan class="cls-274" x="245.33" y="120">r</tspan><tspan class="cls-318" x="250.73" y="120">e</tspan><tspan x="259.23" y="120">d at </tspan><tspan class="cls-319" x="290.34" y="120">h</tspan><tspan class="cls-258" x="298.98" y="120">o</tspan><tspan class="cls-320" x="307.99" y="120">m</tspan><tspan class="cls-321" x="321.48" y="120">e</tspan><tspan x="329.27" y="120">)</tspan><tspan x="0" y="150">- </tspan><tspan class="cls-322" x="8.59" y="150">T</tspan><tspan class="cls-289" x="16.68" y="150">r</tspan><tspan class="cls-290" x="22.1" y="150">a</tspan><tspan class="cls-286" x="30.64" y="150">n</tspan><tspan class="cls-323" x="39.16" y="150">s</tspan><tspan class="cls-292" x="47.29" y="150">p</tspan><tspan class="cls-258" x="56.19" y="150">o</tspan><tspan class="cls-253" x="65.2" y="150">r</tspan><tspan class="cls-279" x="71.18" y="150">t</tspan><tspan x="76.39" y="150">a</tspan><tspan class="cls-151" x="85.01" y="150">t</tspan><tspan class="cls-324" x="90.14" y="150">i</tspan><tspan class="cls-258" x="94.16" y="150">o</tspan><tspan x="103.17" y="150">n </tspan><tspan class="cls-325" x="116" y="150">c</tspan><tspan class="cls-295" x="124.36" y="150">o</tspan><tspan class="cls-326" x="133.29" y="150">s</tspan><tspan class="cls-327" x="141.61" y="150">t</tspan><tspan x="146.83" y="150">s </tspan><tspan class="cls-328" x="159.15" y="150">(</tspan><tspan class="cls-329" x="164.91" y="150">p</tspan><tspan class="cls-288" x="173.78" y="150">u</tspan><tspan class="cls-304" x="182.43" y="150">b</tspan><tspan class="cls-264" x="191.28" y="150">l</tspan><tspan class="cls-279" x="195.24" y="150">i</tspan><tspan x="199.25" y="150">c </tspan><tspan class="cls-94" x="211.69" y="150">p</tspan><tspan class="cls-271" x="220.41" y="150">a</tspan><tspan class="cls-311" x="228.77" y="150">s</tspan><tspan x="236.9" y="150">s </tspan><tspan class="cls-258" x="249.22" y="150">o</tspan><tspan x="258.23" y="150">r </tspan><tspan class="cls-257" x="267.83" y="150">c</tspan><tspan class="cls-290" x="276.12" y="150">a</tspan><tspan x="284.66" y="150">r </tspan><tspan class="cls-330" x="294.26" y="150">l</tspan><tspan class="cls-111" x="298.3" y="150">o</tspan><tspan class="cls-290" x="307.17" y="150">a</tspan><tspan class="cls-331" x="315.71" y="150">n</tspan><tspan x="323.68" y="150">)</tspan><tspan x="0" y="180">- </tspan><tspan class="cls-332" x="8.59" y="180">C</tspan><tspan class="cls-333" x="18.76" y="180">h</tspan><tspan class="cls-334" x="27.32" y="180">i</tspan><tspan class="cls-335" x="31.29" y="180">ld</tspan><tspan class="cls-257" x="44.26" y="180">c</tspan><tspan class="cls-290" x="52.56" y="180">a</tspan><tspan class="cls-259" x="61.1" y="180">r</tspan><tspan x="66.5" y="180">e</tspan></tspan></text><text class="cls-232" transform="translate(403.49 1122.7)"><tspan class="cls-336">F</tspan><tspan class="cls-337" x="11.45" y="0">l</tspan><tspan class="cls-338" x="16.8" y="0">e</tspan><tspan class="cls-27" x="27.9" y="0">x</tspan><tspan class="cls-127" x="38.26" y="0">i</tspan><tspan class="cls-339" x="43.58" y="0">b</tspan><tspan class="cls-234" x="55.32" y="0">l</tspan><tspan x="60.67" y="0">e </tspan><tspan class="cls-338" x="77.4" y="0">s</tspan><tspan x="88.2" y="0">p</tspan><tspan class="cls-340" x="100.03" y="0">e</tspan><tspan class="cls-341" x="111.28" y="0">n</tspan><tspan class="cls-342" x="122.83" y="0">d</tspan><tspan class="cls-343" x="134.5" y="0">i</tspan><tspan class="cls-344" x="139.82" y="0">n</tspan><tspan x="151.36" y="0">g</tspan><tspan class="cls-251"><tspan x="0" y="30">- </tspan><tspan class="cls-345" x="8.59" y="30">C</tspan><tspan class="cls-290" x="18.78" y="30">a</tspan><tspan class="cls-304" x="27.32" y="30">b</tspan><tspan class="cls-274" x="36.17" y="30">l</tspan><tspan x="40.21" y="30">e</tspan><tspan x="0" y="60">- </tspan><tspan class="cls-319" x="8.59" y="60">R</tspan><tspan class="cls-30" x="18.09" y="60">e</tspan><tspan class="cls-326" x="26.37" y="60">s</tspan><tspan class="cls-279" x="34.69" y="60">t</tspan><tspan class="cls-242" x="39.9" y="60">a</tspan><tspan class="cls-288" x="48.38" y="60">u</tspan><tspan class="cls-289" x="57.03" y="60">r</tspan><tspan class="cls-290" x="62.45" y="60">a</tspan><tspan class="cls-346" x="70.99" y="60">n</tspan><tspan class="cls-347" x="79.7" y="60">t</tspan><tspan x="84.92" y="60">s</tspan><tspan x="0" y="90">- </tspan><tspan class="cls-348" x="8.59" y="90">Cl</tspan><tspan class="cls-335" x="22.77" y="90">o</tspan><tspan class="cls-277" x="31.76" y="90">t</tspan><tspan class="cls-333" x="36.96" y="90">h</tspan><tspan class="cls-349" x="45.52" y="90">i</tspan><tspan class="cls-350" x="49.55" y="90">n</tspan><tspan x="58.23" y="90">g </tspan><tspan class="cls-317" x="71.22" y="90">a</tspan><tspan class="cls-329" x="79.76" y="90">n</tspan><tspan x="88.46" y="90">d </tspan><tspan class="cls-351" x="101.51" y="90">s</tspan><tspan class="cls-319" x="109.65" y="90">h</tspan><tspan class="cls-258" x="118.29" y="90">o</tspan><tspan class="cls-315" x="127.3" y="90">p</tspan><tspan class="cls-352" x="136.19" y="90">p</tspan><tspan class="cls-349" x="144.99" y="90">i</tspan><tspan class="cls-353" x="149.02" y="90">n</tspan><tspan x="157.71" y="90">g</tspan><tspan x="0" y="120">- </tspan><tspan class="cls-354" x="8.59" y="120">H</tspan><tspan class="cls-355" x="19.58" y="120">a</tspan><tspan class="cls-349" x="28.05" y="120">i</tspan><tspan class="cls-356" x="32.07" y="120">r</tspan><tspan class="cls-357" x="37.52" y="120">c</tspan><tspan class="cls-294" x="45.82" y="120">u</tspan><tspan x="54.62" y="120">t </tspan><tspan class="cls-290" x="64.06" y="120">a</tspan><tspan class="cls-329" x="72.6" y="120">n</tspan><tspan x="81.3" y="120">d </tspan><tspan class="cls-358" x="94.35" y="120">pe</tspan><tspan class="cls-353" x="111.74" y="120">r</tspan><tspan class="cls-347" x="117.19" y="120">s</tspan><tspan class="cls-258" x="125.29" y="120">o</tspan><tspan class="cls-359" x="134.3" y="120">n</tspan><tspan class="cls-360" x="142.82" y="120">a</tspan><tspan x="151.31" y="120">l </tspan><tspan class="cls-257" x="159.55" y="120">c</tspan><tspan class="cls-290" x="167.85" y="120">a</tspan><tspan class="cls-259" x="176.38" y="120">r</tspan><tspan x="181.79" y="120">e</tspan><tspan x="0" y="150">- </tspan><tspan class="cls-261" x="8.59" y="150">En</tspan><tspan class="cls-361" x="26.25" y="150">t</tspan><tspan class="cls-306" x="31.35" y="150">e</tspan><tspan class="cls-253" x="39.83" y="150">r</tspan><tspan class="cls-279" x="45.81" y="150">t</tspan><tspan class="cls-355" x="51.02" y="150">a</tspan><tspan class="cls-285" x="59.49" y="150">i</tspan><tspan class="cls-319" x="63.51" y="150">nm</tspan><tspan class="cls-306" x="85.66" y="150">e</tspan><tspan class="cls-261" x="94.14" y="150">n</tspan><tspan x="102.85" y="150">t</tspan><tspan x="0" y="180">- </tspan><tspan class="cls-362" x="8.59" y="180">H</tspan><tspan class="cls-258" x="19.71" y="180">o</tspan><tspan class="cls-300" x="28.72" y="180">b</tspan><tspan class="cls-363" x="37.62" y="180">b</tspan><tspan class="cls-266" x="46.43" y="180">i</tspan><tspan class="cls-30" x="50.43" y="180">e</tspan><tspan x="58.71" y="180">s</tspan></tspan></text><text class="cls-232" transform="translate(618.49 1122.7)"><tspan class="cls-364">S</tspan><tspan class="cls-365" x="12.47" y="0">a</tspan><tspan class="cls-250" x="23.54" y="0">v</tspan><tspan x="33.36" y="0">e &amp; </tspan><tspan class="cls-366" x="68.64" y="0">d</tspan><tspan class="cls-340" x="80.42" y="0">e</tspan><tspan class="cls-367" x="91.66" y="0">b</tspan><tspan x="103.54" y="0">t </tspan><tspan class="cls-234" x="0" y="28.8">r</tspan><tspan class="cls-340" x="7.15" y="28.8">e</tspan><tspan class="cls-254" x="18.4" y="28.8">p</tspan><tspan class="cls-368" x="29.97" y="28.8">a</tspan><tspan x="41.1" y="28.8">y</tspan><tspan class="cls-369" x="51.09" y="28.8">m</tspan><tspan class="cls-340" x="69.04" y="28.8">e</tspan><tspan class="cls-370" x="80.29" y="28.8">n</tspan><tspan x="91.86" y="28.8">t</tspan><tspan class="cls-251"><tspan x="0" y="58.8">- </tspan><tspan class="cls-319" x="8.59" y="58.8">R</tspan><tspan class="cls-302" x="18.09" y="58.8">e</tspan><tspan class="cls-151" x="26.64" y="58.8">t</tspan><tspan class="cls-285" x="31.77" y="58.8">i</tspan><tspan class="cls-259" x="35.8" y="58.8">r</tspan><tspan class="cls-260" x="41.2" y="58.8">e</tspan><tspan class="cls-320" x="49.67" y="58.8">m</tspan><tspan class="cls-260" x="63.16" y="58.8">e</tspan><tspan class="cls-261" x="71.64" y="58.8">n</tspan><tspan x="80.35" y="58.8">t</tspan><tspan x="0" y="88.8">- </tspan><tspan class="cls-371" x="8.59" y="88.8">S</tspan><tspan class="cls-324" x="18.38" y="88.8">t</tspan><tspan x="23.59" y="88.8">u</tspan><tspan class="cls-293" x="32.29" y="88.8">d</tspan><tspan class="cls-260" x="41.16" y="88.8">e</tspan><tspan class="cls-261" x="49.63" y="88.8">n</tspan><tspan x="58.35" y="88.8">t </tspan><tspan class="cls-330" x="67.79" y="88.8">l</tspan><tspan class="cls-111" x="71.83" y="88.8">o</tspan><tspan class="cls-317" x="80.71" y="88.8">a</tspan><tspan class="cls-286" x="89.25" y="88.8">n</tspan><tspan x="97.76" y="88.8">s</tspan><tspan x="0" y="118.8">- </tspan><tspan class="cls-332" x="8.59" y="118.8">C</tspan><tspan class="cls-274" x="18.76" y="118.8">r</tspan><tspan class="cls-372" x="24.16" y="118.8">e</tspan><tspan class="cls-308" x="32.65" y="118.8">d</tspan><tspan class="cls-284" x="41.45" y="118.8">i</tspan><tspan x="45.62" y="118.8">t </tspan><tspan class="cls-257" x="55.06" y="118.8">c</tspan><tspan class="cls-290" x="63.36" y="118.8">a</tspan><tspan class="cls-345" x="71.89" y="118.8">r</tspan><tspan x="77.36" y="118.8">d </tspan><tspan class="cls-293" x="90.41" y="118.8">d</tspan><tspan class="cls-260" x="99.28" y="118.8">e</tspan><tspan class="cls-373" x="107.75" y="118.8">b</tspan><tspan x="116.7" y="118.8">t</tspan><tspan x="0" y="148.8">- </tspan><tspan class="cls-261" x="8.59" y="148.8">E</tspan><tspan class="cls-320" x="17.53" y="148.8">m</tspan><tspan class="cls-260" x="31.03" y="148.8">e</tspan><tspan class="cls-345" x="39.5" y="148.8">r</tspan><tspan class="cls-257" x="44.96" y="148.8">g</tspan><tspan class="cls-260" x="53.81" y="148.8">e</tspan><tspan class="cls-291" x="62.28" y="148.8">n</tspan><tspan class="cls-257" x="70.96" y="148.8">c</tspan><tspan x="79.25" y="148.8">y </tspan><tspan class="cls-347" x="90.87" y="148.8">f</tspan><tspan class="cls-320" x="96.47" y="148.8">u</tspan><tspan class="cls-329" x="105.12" y="148.8">n</tspan><tspan x="113.82" y="148.8">d</tspan><tspan x="0" y="178.8">- </tspan><tspan class="cls-318" x="8.59" y="178.8">S</tspan><tspan class="cls-374" x="17.98" y="178.8">a</tspan><tspan class="cls-352" x="26.32" y="178.8">v</tspan><tspan class="cls-349" x="33.94" y="178.8">i</tspan><tspan class="cls-350" x="37.97" y="178.8">n</tspan><tspan class="cls-375" x="46.66" y="178.8">g</tspan><tspan x="55.37" y="178.8">s</tspan></tspan></text></g></svg>