<svg xmlns="http://www.w3.org/2000/svg" xmlns:xlink="http://www.w3.org/1999/xlink" viewBox="0 0 520 798"><defs><style>.cls-1,.cls-144,.cls-145,.cls-150,.cls-157,.cls-158,.cls-159,.cls-160,.cls-2{fill:none;}.cls-157,.cls-158,.cls-159,.cls-160,.cls-2{stroke:#fff;}.cls-2{stroke-width:5.04px;}.cls-3{isolation:isolate;}.cls-4{fill:#d1d3d4;}.cls-5{fill:#e5e5e5;}.cls-6{font-size:18px;}.cls-161,.cls-59,.cls-6,.cls-70{fill:#231f20;}.cls-145,.cls-162,.cls-163,.cls-164,.cls-165,.cls-166,.cls-167,.cls-168,.cls-169,.cls-170,.cls-171,.cls-172,.cls-173,.cls-174,.cls-175,.cls-176,.cls-177,.cls-178,.cls-179,.cls-180,.cls-6,.cls-62,.cls-63,.cls-64,.cls-65,.cls-66,.cls-67,.cls-68,.cls-69,.cls-70{font-family:RobotoCondensed-Regular, Roboto Condensed;}.cls-7{letter-spacing:-0.08em;}.cls-8{letter-spacing:0em;}.cls-9{letter-spacing:0em;}.cls-10{letter-spacing:-0.01em;}.cls-11{letter-spacing:0em;}.cls-12{letter-spacing:-0.01em;}.cls-13{letter-spacing:0em;}.cls-14{letter-spacing:-0.01em;}.cls-15{letter-spacing:0em;}.cls-16{letter-spacing:-0.01em;}.cls-17{letter-spacing:-0.01em;}.cls-18{letter-spacing:0em;}.cls-19{letter-spacing:0em;}.cls-20{letter-spacing:0em;}.cls-21{letter-spacing:0em;}.cls-22{letter-spacing:0em;}.cls-23{letter-spacing:0em;}.cls-24{letter-spacing:0em;}.cls-25{letter-spacing:0em;}.cls-26{letter-spacing:0em;}.cls-27{letter-spacing:0em;}.cls-28{letter-spacing:-0.01em;}.cls-29{letter-spacing:0em;}.cls-30{letter-spacing:0em;}.cls-31{letter-spacing:0em;}.cls-32{letter-spacing:0em;}.cls-33{letter-spacing:0em;}.cls-34{letter-spacing:0em;}.cls-35{letter-spacing:-0.01em;}.cls-36{letter-spacing:0em;}.cls-37{letter-spacing:0.01em;}.cls-38{letter-spacing:-0.01em;}.cls-39{letter-spacing:0em;}.cls-40{letter-spacing:0em;}.cls-41{letter-spacing:0em;}.cls-42{letter-spacing:0em;}.cls-43{letter-spacing:0em;}.cls-44{letter-spacing:0.01em;}.cls-45,.cls-65{letter-spacing:-0.01em;}.cls-46{letter-spacing:-0.01em;}.cls-47{letter-spacing:0em;}.cls-48{letter-spacing:0.02em;}.cls-49{letter-spacing:-0.01em;}.cls-50{letter-spacing:-0.01em;}.cls-51{letter-spacing:0em;}.cls-52{letter-spacing:-0.01em;}.cls-53{letter-spacing:-0.01em;}.cls-54{letter-spacing:-0.02em;}.cls-55{letter-spacing:0em;}.cls-56{letter-spacing:-0.01em;}.cls-57{opacity:0.11;mix-blend-mode:multiply;}.cls-58{fill:#ab4949;}.cls-59{font-size:33px;}.cls-140,.cls-141,.cls-142,.cls-150,.cls-161,.cls-187,.cls-188,.cls-189,.cls-190,.cls-191,.cls-59,.cls-77,.cls-78,.cls-79,.cls-80,.cls-81,.cls-82,.cls-84,.cls-85{font-family:RobotoCondensed-Bold, Roboto Condensed;}.cls-140,.cls-141,.cls-142,.cls-150,.cls-181,.cls-182,.cls-183,.cls-184,.cls-187,.cls-188,.cls-189,.cls-190,.cls-191,.cls-60,.cls-61,.cls-77,.cls-78,.cls-79,.cls-80,.cls-81,.cls-82,.cls-84,.cls-85{font-weight:700;}.cls-60{letter-spacing:-0.01em;}.cls-62{letter-spacing:-0.03em;}.cls-63{letter-spacing:-0.01em;}.cls-64{letter-spacing:0em;}.cls-67{letter-spacing:0em;}.cls-68{letter-spacing:-0.02em;}.cls-69{letter-spacing:-0.02em;}.cls-161,.cls-70{font-size:24px;}.cls-176,.cls-71{letter-spacing:0em;}.cls-72{letter-spacing:0em;}.cls-73{letter-spacing:0em;}.cls-74{letter-spacing:-0.01em;}.cls-164,.cls-75{letter-spacing:-0.01em;}.cls-140,.cls-76{letter-spacing:-0.01em;}.cls-77{letter-spacing:0em;}.cls-78{letter-spacing:-0.02em;}.cls-79{letter-spacing:-0.01em;}.cls-80{letter-spacing:0em;}.cls-81{letter-spacing:-0.01em;}.cls-83{letter-spacing:0em;}.cls-84{letter-spacing:-0.04em;}.cls-85{letter-spacing:-0.01em;}.cls-86{letter-spacing:-0.02em;}.cls-87{letter-spacing:-0.02em;}.cls-88{letter-spacing:0em;}.cls-89{letter-spacing:-0.01em;}.cls-90{letter-spacing:0em;}.cls-91{letter-spacing:-0.01em;}.cls-163,.cls-92{letter-spacing:-0.01em;}.cls-178,.cls-93{letter-spacing:-0.01em;}.cls-94{letter-spacing:-0.01em;}.cls-171,.cls-95{letter-spacing:0em;}.cls-96{letter-spacing:0em;}.cls-174,.cls-97{letter-spacing:0em;}.cls-98{letter-spacing:-0.01em;}.cls-173,.cls-99{letter-spacing:-0.01em;}.cls-100{letter-spacing:0em;}.cls-101{letter-spacing:-0.02em;}.cls-102{letter-spacing:-0.02em;}.cls-103{letter-spacing:-0.01em;}.cls-104{letter-spacing:-0.01em;}.cls-105{letter-spacing:-0.02em;}.cls-106{letter-spacing:-0.01em;}.cls-107{letter-spacing:-0.01em;}.cls-108{letter-spacing:0em;}.cls-109{letter-spacing:-0.01em;}.cls-110{letter-spacing:0em;}.cls-111,.cls-168{letter-spacing:0em;}.cls-112{letter-spacing:-0.02em;}.cls-113{letter-spacing:0em;}.cls-114{letter-spacing:-0.01em;}.cls-115{letter-spacing:-0.01em;}.cls-116{letter-spacing:-0.01em;}.cls-117{letter-spacing:-0.01em;}.cls-118{letter-spacing:-0.02em;}.cls-119{letter-spacing:-0.01em;}.cls-120{letter-spacing:0em;}.cls-121{letter-spacing:0em;}.cls-122{letter-spacing:0em;}.cls-123{letter-spacing:0.02em;}.cls-124{letter-spacing:-0.01em;}.cls-125{letter-spacing:0em;}.cls-126{letter-spacing:-0.01em;}.cls-127{letter-spacing:-0.01em;}.cls-128{letter-spacing:0em;}.cls-129{letter-spacing:-0.01em;}.cls-130,.cls-179{letter-spacing:-0.02em;}.cls-131{letter-spacing:0em;}.cls-132{letter-spacing:-0.01em;}.cls-133{letter-spacing:-0.01em;}.cls-134,.cls-182{letter-spacing:0em;}.cls-135,.cls-175{letter-spacing:0em;}.cls-136{letter-spacing:0.01em;}.cls-137{letter-spacing:0em;}.cls-138{letter-spacing:-0.01em;}.cls-139{letter-spacing:-0.01em;}.cls-141{letter-spacing:-0.01em;}.cls-142{letter-spacing:-0.01em;}.cls-143{letter-spacing:-0.01em;}.cls-144{stroke:#010101;}.cls-144,.cls-157,.cls-158,.cls-159,.cls-160{stroke-miterlimit:10;stroke-width:3px;}.cls-145,.cls-150{font-size:4.5px;}.cls-146{letter-spacing:0.04em;}.cls-147{letter-spacing:0.05em;}.cls-148{opacity:0.7;}.cls-149{fill:#f1f2f2;}.cls-151{letter-spacing:0.02em;}.cls-152{letter-spacing:0.03em;}.cls-153{letter-spacing:0.01em;}.cls-154{fill:#ddd;}.cls-155{fill:#f8bc50;}.cls-156{opacity:0.58;fill:url(#_10_lpi_70_);}.cls-157,.cls-158,.cls-159{stroke-linecap:round;}.cls-158{stroke-dasharray:1.01 10.12;}.cls-159{stroke-dasharray:1 10;}.cls-162{letter-spacing:-0.07em;}.cls-165{letter-spacing:-0.01em;}.cls-166{letter-spacing:-0.01em;}.cls-167{letter-spacing:0em;}.cls-169{letter-spacing:0.03em;}.cls-170{letter-spacing:-0.01em;}.cls-172{letter-spacing:-0.01em;}.cls-177{letter-spacing:-0.01em;}.cls-180{letter-spacing:-0.01em;}.cls-181,.cls-187{letter-spacing:-0.02em;}.cls-183{letter-spacing:-0.02em;}.cls-184{letter-spacing:-0.06em;}.cls-185{letter-spacing:0em;}.cls-186{letter-spacing:-0.01em;}.cls-188{letter-spacing:0em;}.cls-189{letter-spacing:0em;}.cls-190{letter-spacing:-0.01em;}.cls-191{letter-spacing:-0.02em;}</style><pattern id="_10_lpi_70_" data-name="10 lpi 70%" width="72" height="72" patternTransform="translate(518.35 50.42) scale(0.24 0.35)" patternUnits="userSpaceOnUse" viewBox="0 0 72 72"><rect class="cls-1" width="72" height="72"/><line class="cls-2" x1="61.16" y1="244.28" x2="244.28" y2="61.16"/><line class="cls-2" x1="24.79" y1="207.91" x2="207.91" y2="24.79"/><line class="cls-2" x1="42.98" y1="226.1" x2="226.1" y2="42.98"/><line class="cls-2" x1="6.6" y1="189.72" x2="189.72" y2="6.6"/><line class="cls-2" x1="-10.84" y1="244.28" x2="172.28" y2="61.16"/><line class="cls-2" x1="-47.21" y1="207.91" x2="135.91" y2="24.79"/><line class="cls-2" x1="-29.02" y1="226.1" x2="154.1" y2="42.98"/><line class="cls-2" x1="-65.4" y1="189.72" x2="117.72" y2="6.6"/><line class="cls-2" x1="-82.84" y1="244.28" x2="100.28" y2="61.16"/><line class="cls-2" x1="-119.21" y1="207.91" x2="63.91" y2="24.79"/><line class="cls-2" x1="-101.02" y1="226.1" x2="82.1" y2="42.98"/><line class="cls-2" x1="-137.4" y1="189.72" x2="45.72" y2="6.6"/><line class="cls-2" x1="-154.84" y1="244.28" x2="28.28" y2="61.16"/><line class="cls-2" x1="-173.02" y1="226.1" x2="10.1" y2="42.98"/><line class="cls-2" x1="61.16" y1="172.28" x2="244.28" y2="-10.84"/><line class="cls-2" x1="24.79" y1="135.91" x2="207.91" y2="-47.21"/><line class="cls-2" x1="42.98" y1="154.1" x2="226.1" y2="-29.02"/><line class="cls-2" x1="6.6" y1="117.72" x2="189.72" y2="-65.4"/><line class="cls-2" x1="61.91" y1="245.03" x2="245.03" y2="61.91"/><line class="cls-2" x1="25.53" y1="208.65" x2="208.65" y2="25.53"/><line class="cls-2" x1="-10.84" y1="172.28" x2="172.28" y2="-10.84"/><line class="cls-2" x1="-47.21" y1="135.91" x2="135.91" y2="-47.21"/><line class="cls-2" x1="43.72" y1="226.84" x2="226.84" y2="43.72"/><line class="cls-2" x1="7.35" y1="190.47" x2="190.47" y2="7.35"/><line class="cls-2" x1="-29.02" y1="154.1" x2="154.1" y2="-29.02"/><line class="cls-2" x1="-65.4" y1="117.72" x2="117.72" y2="-65.4"/><line class="cls-2" x1="-10.09" y1="245.03" x2="173.03" y2="61.91"/><line class="cls-2" x1="-46.47" y1="208.65" x2="136.65" y2="25.53"/><line class="cls-2" x1="-82.84" y1="172.28" x2="100.28" y2="-10.84"/><line class="cls-2" x1="-119.21" y1="135.91" x2="63.91" y2="-47.21"/><line class="cls-2" x1="-28.28" y1="226.84" x2="154.84" y2="43.72"/><line class="cls-2" x1="-64.65" y1="190.47" x2="118.47" y2="7.35"/><line class="cls-2" x1="-101.02" y1="154.1" x2="82.1" y2="-29.02"/><line class="cls-2" x1="-137.4" y1="117.72" x2="45.72" y2="-65.4"/><line class="cls-2" x1="-82.09" y1="245.03" x2="101.03" y2="61.91"/><line class="cls-2" x1="-118.47" y1="208.65" x2="64.65" y2="25.53"/><line class="cls-2" x1="-154.84" y1="172.28" x2="28.28" y2="-10.84"/><line class="cls-2" x1="-100.28" y1="226.84" x2="82.84" y2="43.72"/><line class="cls-2" x1="-136.65" y1="190.47" x2="46.47" y2="7.35"/><line class="cls-2" x1="-173.02" y1="154.1" x2="10.1" y2="-29.02"/><line class="cls-2" x1="-154.09" y1="245.03" x2="29.03" y2="61.91"/><line class="cls-2" x1="-172.28" y1="226.84" x2="10.84" y2="43.72"/><line class="cls-2" x1="61.16" y1="100.28" x2="244.28" y2="-82.84"/><line class="cls-2" x1="24.79" y1="63.91" x2="207.91" y2="-119.21"/><line class="cls-2" x1="42.98" y1="82.1" x2="226.1" y2="-101.02"/><line class="cls-2" x1="6.6" y1="45.72" x2="189.72" y2="-137.4"/><line class="cls-2" x1="61.91" y1="173.03" x2="245.03" y2="-10.09"/><line class="cls-2" x1="25.53" y1="136.65" x2="208.65" y2="-46.47"/><line class="cls-2" x1="-10.84" y1="100.28" x2="172.28" y2="-82.84"/><line class="cls-2" x1="-47.21" y1="63.91" x2="135.91" y2="-119.21"/><line class="cls-2" x1="43.72" y1="154.84" x2="226.84" y2="-28.28"/><line class="cls-2" x1="7.35" y1="118.47" x2="190.47" y2="-64.65"/><line class="cls-2" x1="-29.02" y1="82.1" x2="154.1" y2="-101.02"/><line class="cls-2" x1="-65.4" y1="45.72" x2="117.72" y2="-137.4"/><line class="cls-2" x1="26.28" y1="209.4" x2="209.4" y2="26.28"/><line class="cls-2" x1="-10.09" y1="173.03" x2="173.03" y2="-10.09"/><line class="cls-2" x1="-46.47" y1="136.65" x2="136.65" y2="-46.47"/><line class="cls-2" x1="-82.84" y1="100.28" x2="100.28" y2="-82.84"/><line class="cls-2" x1="-119.21" y1="63.91" x2="63.91" y2="-119.21"/><line class="cls-2" x1="8.09" y1="191.21" x2="191.21" y2="8.09"/><line class="cls-2" x1="-28.28" y1="154.84" x2="154.84" y2="-28.28"/><line class="cls-2" x1="-64.65" y1="118.47" x2="118.47" y2="-64.65"/><line class="cls-2" x1="-101.02" y1="82.1" x2="82.1" y2="-101.02"/><line class="cls-2" x1="-137.4" y1="45.72" x2="45.72" y2="-137.4"/><line class="cls-2" x1="-45.72" y1="209.4" x2="137.4" y2="26.28"/><line class="cls-2" x1="-82.09" y1="173.03" x2="101.03" y2="-10.09"/><line class="cls-2" x1="-118.47" y1="136.65" x2="64.65" y2="-46.47"/><line class="cls-2" x1="-154.84" y1="100.28" x2="28.28" y2="-82.84"/><line class="cls-2" x1="-63.91" y1="191.21" x2="119.21" y2="8.09"/><line class="cls-2" x1="-100.28" y1="154.84" x2="82.84" y2="-28.28"/><line class="cls-2" x1="-136.65" y1="118.47" x2="46.47" y2="-64.65"/><line class="cls-2" x1="-173.02" y1="82.1" x2="10.1" y2="-101.02"/><line class="cls-2" x1="-117.72" y1="209.4" x2="65.4" y2="26.28"/><line class="cls-2" x1="-154.09" y1="173.03" x2="29.03" y2="-10.09"/><line class="cls-2" x1="-135.91" y1="191.21" x2="47.21" y2="8.09"/><line class="cls-2" x1="-172.28" y1="154.84" x2="10.84" y2="-28.28"/><line class="cls-2" x1="61.16" y1="28.28" x2="244.28" y2="-154.84"/><line class="cls-2" x1="42.98" y1="10.1" x2="226.1" y2="-173.02"/><line class="cls-2" x1="61.91" y1="101.03" x2="245.03" y2="-82.09"/><line class="cls-2" x1="25.53" y1="64.65" x2="208.65" y2="-118.47"/><line class="cls-2" x1="-10.84" y1="28.28" x2="172.28" y2="-154.84"/><line class="cls-2" x1="43.72" y1="82.84" x2="226.84" y2="-100.28"/><line class="cls-2" x1="7.35" y1="46.47" x2="190.47" y2="-136.65"/><line class="cls-2" x1="-29.02" y1="10.1" x2="154.1" y2="-173.02"/><line class="cls-2" x1="26.28" y1="137.4" x2="209.4" y2="-45.72"/><line class="cls-2" x1="-10.09" y1="101.03" x2="173.03" y2="-82.09"/><line class="cls-2" x1="-46.47" y1="64.65" x2="136.65" y2="-118.47"/><line class="cls-2" x1="-82.84" y1="28.28" x2="100.28" y2="-154.84"/><line class="cls-2" x1="8.09" y1="119.21" x2="191.21" y2="-63.91"/><line class="cls-2" x1="-28.28" y1="82.84" x2="154.84" y2="-100.28"/><line class="cls-2" x1="-64.65" y1="46.47" x2="118.47" y2="-136.65"/><line class="cls-2" x1="-101.02" y1="10.1" x2="82.1" y2="-173.02"/><line class="cls-2" x1="-45.72" y1="137.4" x2="137.4" y2="-45.72"/><line class="cls-2" x1="-82.09" y1="101.03" x2="101.03" y2="-82.09"/><line class="cls-2" x1="-118.47" y1="64.65" x2="64.65" y2="-118.47"/><line class="cls-2" x1="-154.84" y1="28.28" x2="28.28" y2="-154.84"/><line class="cls-2" x1="-63.91" y1="119.21" x2="119.21" y2="-63.91"/><line class="cls-2" x1="-100.28" y1="82.84" x2="82.84" y2="-100.28"/><line class="cls-2" x1="-136.65" y1="46.47" x2="46.47" y2="-136.65"/><line class="cls-2" x1="-173.02" y1="10.1" x2="10.1" y2="-173.02"/><line class="cls-2" x1="-117.72" y1="137.4" x2="65.4" y2="-45.72"/><line class="cls-2" x1="-154.09" y1="101.03" x2="29.03" y2="-82.09"/><line class="cls-2" x1="-135.91" y1="119.21" x2="47.21" y2="-63.91"/><line class="cls-2" x1="-172.28" y1="82.84" x2="10.84" y2="-100.28"/><line class="cls-2" x1="61.91" y1="29.03" x2="245.03" y2="-154.09"/><line class="cls-2" x1="43.72" y1="10.84" x2="226.84" y2="-172.28"/><line class="cls-2" x1="26.28" y1="65.4" x2="209.4" y2="-117.72"/><line class="cls-2" x1="-10.09" y1="29.03" x2="173.03" y2="-154.09"/><line class="cls-2" x1="8.09" y1="47.21" x2="191.21" y2="-135.91"/><line class="cls-2" x1="-28.28" y1="10.84" x2="154.84" y2="-172.28"/><line class="cls-2" x1="-45.72" y1="65.4" x2="137.4" y2="-117.72"/><line class="cls-2" x1="-82.09" y1="29.03" x2="101.03" y2="-154.09"/><line class="cls-2" x1="-63.91" y1="47.21" x2="119.21" y2="-135.91"/><line class="cls-2" x1="-100.28" y1="10.84" x2="82.84" y2="-172.28"/><line class="cls-2" x1="-117.72" y1="65.4" x2="65.4" y2="-117.72"/><line class="cls-2" x1="-154.09" y1="29.03" x2="29.03" y2="-154.09"/><line class="cls-2" x1="-135.91" y1="47.21" x2="47.21" y2="-135.91"/><line class="cls-2" x1="-172.28" y1="10.84" x2="10.84" y2="-172.28"/></pattern></defs><title>Washington | extra</title><g class="cls-3"><g id="Background"><rect class="cls-4" x="-620.46" y="-538.61" width="760.64" height="759.8"/><rect class="cls-5" x="-620.46" y="239.42" width="760.64" height="595.38"/></g><g id="Layer_1" data-name="Layer 1"><text class="cls-6" transform="translate(-597.81 361.64) rotate(-0.04)"><tspan class="cls-7">T</tspan><tspan class="cls-8" x="7.94" y="0">a</tspan><tspan class="cls-9" x="16.48" y="0">k</tspan><tspan class="cls-10" x="24.66" y="0">i</tspan><tspan class="cls-11" x="28.69" y="0">n</tspan><tspan x="37.38" y="0">g </tspan><tspan class="cls-12" x="50.37" y="0">t</tspan><tspan class="cls-13" x="55.56" y="0">h</tspan><tspan x="64.21" y="0">e </tspan><tspan class="cls-14" x="76.76" y="0">t</tspan><tspan class="cls-15" x="81.81" y="0">o</tspan><tspan class="cls-16" x="90.81" y="0">t</tspan><tspan class="cls-17" x="96.02" y="0">a</tspan><tspan x="104.51" y="0">l </tspan><tspan class="cls-8" x="112.76" y="0">a</tspan><tspan class="cls-18" x="121.3" y="0">mo</tspan><tspan class="cls-19" x="143.76" y="0">u</tspan><tspan class="cls-20" x="152.42" y="0">n</tspan><tspan x="161.13" y="0">t </tspan><tspan class="cls-21" x="170.57" y="0">s</tspan><tspan class="cls-22" x="178.71" y="0">p</tspan><tspan class="cls-23" x="187.62" y="0">e</tspan><tspan class="cls-20" x="196.09" y="0">n</tspan><tspan x="204.81" y="0">t </tspan><tspan class="cls-24" x="214.25" y="0">o</tspan><tspan x="223.26" y="0">n </tspan><tspan class="cls-25" x="236.09" y="0">n</tspan><tspan class="cls-26" x="244.75" y="0">e</tspan><tspan class="cls-27" x="253.19" y="0">e</tspan><tspan class="cls-28" x="261.68" y="0">d</tspan><tspan x="270.42" y="0">s </tspan><tspan class="cls-12" x="282.74" y="0">t</tspan><tspan class="cls-13" x="287.94" y="0">h</tspan><tspan class="cls-29" x="296.58" y="0">e</tspan><tspan x="305.06" y="0">n </tspan><tspan class="cls-30" x="317.89" y="0">f</tspan><tspan class="cls-31" x="323.66" y="0">i</tspan><tspan class="cls-32" x="327.69" y="0">g</tspan><tspan class="cls-33" x="336.53" y="0">u</tspan><tspan class="cls-34" x="345.18" y="0">r</tspan><tspan class="cls-35" x="350.62" y="0">i</tspan><tspan class="cls-11" x="354.64" y="0">n</tspan><tspan x="363.33" y="0">g </tspan><tspan class="cls-36" x="376.32" y="0">o</tspan><tspan class="cls-37" x="385.3" y="0">u</tspan><tspan x="394.1" y="0">t </tspan><tspan class="cls-38" x="403.54" y="0">i</tspan><tspan x="407.52" y="0">f </tspan><tspan class="cls-39" x="417.33" y="0">n</tspan><tspan class="cls-26" x="425.99" y="0">e</tspan><tspan class="cls-27" x="434.43" y="0">e</tspan><tspan class="cls-28" x="442.93" y="0">d</tspan><tspan x="451.67" y="0">s </tspan><tspan class="cls-8" x="463.99" y="0">a</tspan><tspan class="cls-40" x="472.53" y="0">r</tspan><tspan x="477.93" y="0">e </tspan><tspan class="cls-33" x="490.48" y="0">u</tspan><tspan class="cls-41" x="499.13" y="0">n</tspan><tspan class="cls-36" x="507.83" y="0">d</tspan><tspan class="cls-23" x="516.7" y="0">e</tspan><tspan x="525.17" y="0">r bu</tspan><tspan class="cls-42" x="552.35" y="0">d</tspan><tspan class="cls-43" x="561.25" y="0">g</tspan><tspan class="cls-44" x="570.09" y="0">e</tspan><tspan x="578.65" y="0">t </tspan><tspan class="cls-8" x="588.09" y="0">a</tspan><tspan class="cls-41" x="596.63" y="0">n</tspan><tspan x="605.32" y="0">d </tspan><tspan class="cls-41" x="618.38" y="0">w</tspan><tspan class="cls-45" x="630.06" y="0">h</tspan><tspan x="638.57" y="0">at </tspan><tspan class="cls-46" x="656.63" y="0">i</tspan><tspan x="660.53" y="0">s </tspan><tspan class="cls-47" x="672.85" y="0">le</tspan><tspan class="cls-48" x="685.25" y="0">f</tspan><tspan x="691.32" y="0">t </tspan><tspan class="cls-49" x="0" y="21.6">f</tspan><tspan class="cls-24" x="5.43" y="21.6">o</tspan><tspan x="14.44" y="21.6">r </tspan><tspan class="cls-50" x="24.04" y="21.6">w</tspan><tspan class="cls-8" x="35.47" y="21.6">a</tspan><tspan class="cls-51" x="44.01" y="21.6">n</tspan><tspan class="cls-52" x="52.73" y="21.6">t</tspan><tspan x="57.95" y="21.6">s </tspan><tspan class="cls-8" x="70.27" y="21.6">a</tspan><tspan class="cls-41" x="78.81" y="21.6">n</tspan><tspan x="87.51" y="21.6">d </tspan><tspan class="cls-53" x="100.56" y="21.6">s</tspan><tspan class="cls-54" x="108.63" y="21.6">a</tspan><tspan class="cls-55" x="116.97" y="21.6">v</tspan><tspan class="cls-10" x="124.59" y="21.6">i</tspan><tspan class="cls-11" x="128.62" y="21.6">n</tspan><tspan class="cls-56" x="137.31" y="21.6">g</tspan><tspan x="146.02" y="21.6">s</tspan></text><g class="cls-57"><rect class="cls-58" x="-26.4" y="-384.83" width="143.6" height="564.38"/></g><text class="cls-59" transform="translate(-171.05 482.42)"><tspan class="cls-60">0</tspan><tspan class="cls-61" x="16.3" y="0">% </tspan><tspan class="cls-62" x="44.99" y="0">W</tspan><tspan class="cls-63" x="69.16" y="0">a</tspan><tspan class="cls-64" x="84.65" y="0">n</tspan><tspan class="cls-65" x="100.47" y="0">t</tspan><tspan class="cls-66" x="109.87" y="0">s</tspan></text><text class="cls-59" transform="translate(-10.71 482.42)"><tspan class="cls-60">0</tspan><tspan class="cls-61" x="16.3" y="0">% </tspan><tspan class="cls-67" x="44.99" y="0">S</tspan><tspan class="cls-68" x="62.03" y="0">a</tspan><tspan class="cls-69" x="77.14" y="0">v</tspan><tspan class="cls-66" x="90.55" y="0">e</tspan></text><text class="cls-70" transform="translate(-601.21 726.79)"><tspan class="cls-71">N</tspan><tspan class="cls-72" x="14.77" y="0">e</tspan><tspan class="cls-73" x="25.98" y="0">e</tspan><tspan class="cls-74" x="37.26" y="0">d</tspan><tspan x="48.86" y="0">s </tspan><tspan class="cls-75" x="65.29" y="0">a</tspan><tspan class="cls-76" x="76.63" y="0">r</tspan><tspan x="83.78" y="0">e </tspan><tspan class="cls-77" x="100.51" y="0">$</tspan><tspan class="cls-78" x="112.68" y="0">3</tspan><tspan class="cls-79" x="124.43" y="0">,</tspan><tspan class="cls-80" x="130.11" y="0">5</tspan><tspan class="cls-81" x="142.14" y="0">0</tspan><tspan class="cls-82" x="154.1" y="0">8 </tspan><tspan class="cls-75" x="171.77" y="0">a</tspan><tspan class="cls-83" x="183.11" y="0">n</tspan><tspan x="194.66" y="0">d </tspan><tspan class="cls-84" x="212.06" y="0">6</tspan><tspan class="cls-85" x="223.2" y="0">7</tspan><tspan class="cls-82" x="235.2" y="0">%</tspan><tspan x="250.53" y="0"> </tspan><tspan class="cls-86" x="256.03" y="0">o</tspan><tspan class="cls-87" x="267.67" y="0">v</tspan><tspan class="cls-88" x="277.49" y="0">e</tspan><tspan x="288.74" y="0">r </tspan><tspan class="cls-89" x="301.54" y="0">t</tspan><tspan class="cls-90" x="308.41" y="0">h</tspan><tspan x="319.89" y="0">e </tspan><tspan class="cls-91" x="336.63" y="0">i</tspan><tspan class="cls-92" x="341.97" y="0">d</tspan><tspan class="cls-93" x="353.75" y="0">e</tspan><tspan class="cls-94" x="364.72" y="0">a</tspan><tspan x="375.99" y="0">l </tspan><tspan class="cls-95" x="386.98" y="0">bu</tspan><tspan class="cls-71" x="410.32" y="0">d</tspan><tspan class="cls-18" x="422.14" y="0">g</tspan><tspan class="cls-96" x="433.89" y="0">e</tspan><tspan x="445.24" y="0">t </tspan><tspan class="cls-97" x="457.83" y="0">w</tspan><tspan class="cls-98" x="473.37" y="0">h</tspan><tspan class="cls-99" x="484.73" y="0">i</tspan><tspan class="cls-100" x="490.04" y="0">c</tspan><tspan x="501.11" y="0">h </tspan><tspan class="cls-76" x="518.19" y="0">l</tspan><tspan class="cls-93" x="523.54" y="0">e</tspan><tspan class="cls-101" x="534.51" y="0">a</tspan><tspan class="cls-102" x="545.58" y="0">v</tspan><tspan class="cls-103" x="555.4" y="0">e</tspan><tspan x="566.39" y="0">s </tspan><tspan class="cls-89" x="582.82" y="0">th</tspan><tspan class="cls-104" x="601.07" y="0">i</tspan><tspan x="606.22" y="0">s </tspan><tspan class="cls-105" x="622.65" y="0">f</tspan><tspan class="cls-75" x="629.88" y="0">a</tspan><tspan class="cls-106" x="641.22" y="0">m</tspan><tspan class="cls-107" x="659.05" y="0">i</tspan><tspan class="cls-108" x="664.29" y="0">l</tspan><tspan x="669.73" y="0">y </tspan><tspan class="cls-109" x="0" y="28.8">n</tspan><tspan x="11.48" y="28.8">o </tspan><tspan class="cls-76" x="29.03" y="28.8">r</tspan><tspan class="cls-110" x="36.18" y="28.8">o</tspan><tspan class="cls-111" x="48.12" y="28.8">o</tspan><tspan x="60.08" y="28.8">m </tspan><tspan class="cls-112" x="83.64" y="28.8">f</tspan><tspan class="cls-111" x="90.83" y="28.8">o</tspan><tspan x="102.8" y="28.8">r </tspan><tspan class="cls-113" x="115.59" y="28.8">i</tspan><tspan class="cls-114" x="121.11" y="28.8">t</tspan><tspan class="cls-88" x="127.86" y="28.8">e</tspan><tspan class="cls-74" x="139.11" y="28.8">m</tspan><tspan x="156.87" y="28.8">s </tspan><tspan class="cls-115" x="173.3" y="28.8">t</tspan><tspan class="cls-90" x="180.17" y="28.8">h</tspan><tspan class="cls-116" x="191.65" y="28.8">e</tspan><tspan x="202.71" y="28.8">y </tspan><tspan class="cls-117" x="218.2" y="28.8">m</tspan><tspan class="cls-118" x="235.96" y="28.8">a</tspan><tspan x="247.08" y="28.8">y </tspan><tspan class="cls-86" x="262.57" y="28.8">w</tspan><tspan class="cls-119" x="277.77" y="28.8">a</tspan><tspan class="cls-120" x="289.1" y="28.8">n</tspan><tspan x="300.68" y="28.8">t </tspan><tspan class="cls-111" x="313.27" y="28.8">o</tspan><tspan x="325.23" y="28.8">r </tspan><tspan class="cls-121" x="338.03" y="28.8">p</tspan><tspan class="cls-122" x="349.8" y="28.8">u</tspan><tspan class="cls-123" x="361.49" y="28.8">t</tspan><tspan class="cls-124" x="369.01" y="28.8">t</tspan><tspan class="cls-53" x="375.8" y="28.8">i</tspan><tspan class="cls-125" x="381.12" y="28.8">n</tspan><tspan x="392.66" y="28.8">g </tspan><tspan class="cls-75" x="409.98" y="28.8">a</tspan><tspan class="cls-126" x="421.32" y="28.8">n</tspan><tspan x="432.57" y="28.8">y </tspan><tspan class="cls-127" x="448.07" y="28.8">m</tspan><tspan class="cls-111" x="466" y="28.8">o</tspan><tspan class="cls-128" x="477.96" y="28.8">n</tspan><tspan class="cls-17" x="489.46" y="28.8">e</tspan><tspan x="500.52" y="28.8">y </tspan><tspan class="cls-112" x="516.01" y="28.8">t</tspan><tspan class="cls-129" x="522.7" y="28.8">o</tspan><tspan class="cls-130" x="534.41" y="28.8">w</tspan><tspan class="cls-75" x="549.6" y="28.8">a</tspan><tspan class="cls-131" x="560.94" y="28.8">r</tspan><tspan class="cls-74" x="568.17" y="28.8">d</tspan><tspan x="579.77" y="28.8">s </tspan><tspan class="cls-132" x="596.2" y="28.8">s</tspan><tspan class="cls-101" x="606.91" y="28.8">a</tspan><tspan class="cls-133" x="617.97" y="28.8">v</tspan><tspan class="cls-53" x="628.09" y="28.8">i</tspan><tspan class="cls-125" x="633.41" y="28.8">n</tspan><tspan class="cls-103" x="644.95" y="28.8">g</tspan><tspan x="656.52" y="28.8">s </tspan><tspan class="cls-111" x="0" y="57.6">o</tspan><tspan x="11.96" y="57.6">r </tspan><tspan class="cls-92" x="24.76" y="57.6">d</tspan><tspan class="cls-88" x="36.54" y="57.6">e</tspan><tspan class="cls-134" x="47.79" y="57.6">b</tspan><tspan x="59.67" y="57.6">t </tspan><tspan class="cls-76" x="72.25" y="57.6">r</tspan><tspan class="cls-88" x="79.4" y="57.6">e</tspan><tspan class="cls-93" x="90.65" y="57.6">p</tspan><tspan class="cls-118" x="102.23" y="57.6">a</tspan><tspan x="113.35" y="57.6">y</tspan><tspan class="cls-135" x="123.35" y="57.6">m</tspan><tspan class="cls-88" x="141.29" y="57.6">e</tspan><tspan class="cls-120" x="152.54" y="57.6">n</tspan><tspan class="cls-135" x="164.12" y="57.6">t</tspan><tspan x="171.09" y="57.6">. </tspan><tspan class="cls-133" x="182.9" y="57.6">I</tspan><tspan x="188.76" y="57.6">n </tspan><tspan class="cls-105" x="205.87" y="57.6">f</tspan><tspan class="cls-116" x="213.1" y="57.6">a</tspan><tspan class="cls-136" x="224.42" y="57.6">c</tspan><tspan class="cls-137" x="235.74" y="57.6">t</tspan><tspan x="242.89" y="57.6">, </tspan><tspan class="cls-89" x="253.09" y="57.6">t</tspan><tspan class="cls-90" x="259.97" y="57.6">h</tspan><tspan x="271.45" y="57.6">e </tspan><tspan class="cls-138" x="288.18" y="57.6">n</tspan><tspan class="cls-72" x="299.67" y="57.6">e</tspan><tspan class="cls-73" x="310.88" y="57.6">e</tspan><tspan class="cls-139" x="322.16" y="57.6">d</tspan><tspan x="333.76" y="57.6">s </tspan><tspan class="cls-75" x="350.19" y="57.6">a</tspan><tspan class="cls-76" x="361.53" y="57.6">r</tspan><tspan x="368.68" y="57.6">e </tspan><tspan class="cls-140" x="385.41" y="57.6">$</tspan><tspan class="cls-141" x="397.4" y="57.6">8</tspan><tspan class="cls-142" x="409.26" y="57.6">9</tspan><tspan class="cls-82" x="421.06" y="57.6">7</tspan><tspan x="433.2" y="57.6"> </tspan><tspan class="cls-86" x="438.7" y="57.6">o</tspan><tspan class="cls-87" x="450.34" y="57.6">v</tspan><tspan class="cls-88" x="460.17" y="57.6">e</tspan><tspan x="471.41" y="57.6">r </tspan><tspan class="cls-89" x="484.21" y="57.6">t</tspan><tspan class="cls-90" x="491.08" y="57.6">h</tspan><tspan class="cls-138" x="502.56" y="57.6">e</tspan><tspan class="cls-53" x="513.68" y="57.6">i</tspan><tspan x="519" y="57.6">r </tspan><tspan class="cls-127" x="531.79" y="57.6">m</tspan><tspan class="cls-111" x="549.73" y="57.6">o</tspan><tspan class="cls-120" x="561.69" y="57.6">n</tspan><tspan class="cls-89" x="573.27" y="57.6">t</tspan><tspan class="cls-143" x="580.14" y="57.6">h</tspan><tspan class="cls-108" x="591.54" y="57.6">l</tspan><tspan x="596.98" y="57.6">y </tspan></text><line class="cls-144" x1="-620.32" y1="222.52" x2="140.38" y2="222.61"/><line class="cls-144" x1="-620.32" y1="239.54" x2="140.38" y2="239.62"/><line class="cls-144" x1="-600.32" y1="222.71" x2="120.38" y2="222.79"/><text class="cls-145" transform="translate(113.07 615.44)"><tspan class="cls-146">45</tspan><tspan class="cls-147" x="4.81" y="0">7</tspan><tspan x="7.24" y="0">7</tspan></text><g class="cls-148"><path class="cls-149" d="M45.7,190.58l1-.3c.7-.2,1,.08,1,.08l2.43,1.9a.63.63,0,0,1,.06.94.73.73,0,0,1-1,.09l-1.95-1.49-1.52-1.21"/><path class="cls-149" d="M42.85,188.15a1.38,1.38,0,1,1,1.38-1.38,1.38,1.38,0,0,1-1.38,1.38"/><path class="cls-149" d="M46.27,195.71A.74.74,0,1,0,47,195a.74.74,0,0,0-.74.74m-6.84,0a.74.74,0,1,0,.74-.74.74.74,0,0,0-.74.74m8.48-1.45A1.71,1.71,0,1,1,47,194a1.91,1.91,0,0,1,.35,0,.88.88,0,0,0,0-.52.92.92,0,0,0-.31-.49l-.62-.49-3.15,1a1.21,1.21,0,0,1-1.53-.77l-.06-.17-.68,1.62a1.7,1.7,0,1,1-2.6,1.44,1.7,1.7,0,0,1,1.7-1.7,1.6,1.6,0,0,1,.35,0l.94-2.24-1.55-4.5-3-2.37a.9.9,0,0,0-1.45.72.89.89,0,0,0,.36.73.29.29,0,0,1,0,.41.28.28,0,0,1-.4,0,1.48,1.48,0,0,1,.91-2.64,1.5,1.5,0,0,1,.89.29l10.22,8.13a1.42,1.42,0,0,1,.42,1.63"/></g></g><g id="Graphs"><text class="cls-150" transform="translate(113.13 17.6)"><tspan class="cls-151">5</tspan><tspan class="cls-152" x="2.36" y="0">2</tspan><tspan class="cls-153" x="4.77" y="0">2</tspan><tspan x="7.08" y="0">1</tspan></text><rect class="cls-154" x="-115.65" y="26.2" width="233.65" height="34.56"/><text class="cls-150" transform="translate(113.13 136.6)"><tspan class="cls-151">5</tspan><tspan class="cls-152" x="2.36" y="0">2</tspan><tspan class="cls-153" x="4.77" y="0">2</tspan><tspan x="7.08" y="0">1</tspan></text><rect class="cls-155" x="-115.65" y="145.2" width="356.65" height="34.56"/><rect class="cls-155" x="-115.65" y="550.18" width="356.65" height="76.4"/></g><g id="white_overlay" data-name="white overlay"><rect class="cls-156" x="-115.78" y="145.12" width="356.78" height="34.62"/></g><g id="lines"><line class="cls-157" x1="118.81" y1="493.32" x2="118.81" y2="493.82"/><line class="cls-158" x1="118.81" y1="503.94" x2="118.81" y2="654.77"/><line class="cls-157" x1="118.81" y1="659.83" x2="118.81" y2="660.33"/><line class="cls-159" x1="118.46" y1="-385.14" x2="118.46" y2="186.56"/><line class="cls-160" x1="241.13" y1="550.48" x2="241.13" y2="625.64"/></g><g id="Text"><text class="cls-161" transform="translate(-297.21 14.71)"><tspan class="cls-61"> </tspan><tspan class="cls-162" x="5.53" y="0">T</tspan><tspan class="cls-163" x="16.26" y="0">r</tspan><tspan class="cls-164" x="23.43" y="0">a</tspan><tspan class="cls-165" x="34.77" y="0">n</tspan><tspan class="cls-166" x="46.07" y="0">s</tspan><tspan class="cls-167" x="56.87" y="0">p</tspan><tspan class="cls-168" x="68.69" y="0">o</tspan><tspan class="cls-169" x="80.65" y="0">r</tspan><tspan class="cls-170" x="88.58" y="0">t</tspan><tspan class="cls-171" x="95.48" y="0">a</tspan><tspan class="cls-172" x="106.93" y="0">t</tspan><tspan class="cls-173" x="113.72" y="0">i</tspan><tspan class="cls-168" x="119.02" y="0">o</tspan><tspan class="cls-66" x="130.98" y="0">n </tspan><tspan class="cls-174" x="148.09" y="0">p</tspan><tspan class="cls-175" x="159.87" y="0">u</tspan><tspan class="cls-176" x="171.35" y="0">b</tspan><tspan class="cls-177" x="183.1" y="0">l</tspan><tspan class="cls-173" x="188.33" y="0">i</tspan><tspan class="cls-66" x="193.63" y="0">c </tspan><tspan class="cls-178" x="210.22" y="0">p</tspan><tspan class="cls-179" x="221.79" y="0">a</tspan><tspan class="cls-180" x="232.88" y="0">s</tspan><tspan class="cls-66" x="243.67" y="0">s </tspan><tspan class="cls-181" x="260.1" y="0">+</tspan><tspan class="cls-182" x="271.1" y="0">$</tspan><tspan class="cls-183" x="283.29" y="0">4</tspan><tspan class="cls-184" x="294.86" y="0">7</tspan><tspan class="cls-61" x="305.5" y="0">4</tspan></text><text class="cls-70" transform="translate(-62.23 134.54)"><tspan class="cls-185">C</tspan><tspan class="cls-98" x="13.51" y="0">h</tspan><tspan class="cls-107" x="24.88" y="0">i</tspan><tspan class="cls-110" x="30.12" y="0">ld</tspan><tspan class="cls-18" x="47.32" y="0">c</tspan><tspan class="cls-119" x="58.33" y="0">a</tspan><tspan class="cls-186" x="69.67" y="0">r</tspan><tspan x="76.82" y="0">e </tspan><tspan class="cls-187" x="93.55" y="0">+</tspan><tspan class="cls-188" x="104.55" y="0">$</tspan><tspan class="cls-189" x="116.71" y="0">2</tspan><tspan class="cls-190" x="128.89" y="0">,</tspan><tspan class="cls-191" x="134.57" y="0">5</tspan><tspan class="cls-142" x="146.28" y="0">9</tspan><tspan class="cls-82" x="158.08" y="0">7</tspan></text></g></g></svg>