<svg xmlns="http://www.w3.org/2000/svg" viewBox="0 0 15.45 13.21"><defs><style>.a{fill:#231f20;}</style></defs><title>childcare</title><path class="a" d="M398.71,305.39l1-.3a1,1,0,0,1,1,.08l2.43,1.9a0.63,0.63,0,0,1,.06.94,0.73,0.73,0,0,1-1,.09l-1.95-1.49-1.52-1.21" transform="translate(-387.93 -299.01)"/><path class="a" d="M395.86,303a1.38,1.38,0,1,1,1.38-1.38,1.38,1.38,0,0,1-1.38,1.38" transform="translate(-387.93 -299.01)"/><path class="a" d="M399.28,310.52a0.74,0.74,0,1,0,.74-0.74,0.74,0.74,0,0,0-.74.74m-6.84,0a0.74,0.74,0,1,0,.74-0.74,0.74,0.74,0,0,0-.74.74m8.48-1.45a1.71,1.71,0,1,1-.9-0.25,1.91,1.91,0,0,1,.35,0,0.88,0.88,0,0,0,0-.52,0.92,0.92,0,0,0-.31-0.49l-0.62-.49-3.15,1a1.21,1.21,0,0,1-1.53-.77l-0.06-.17-0.68,1.62a1.7,1.7,0,1,1-2.6,1.44,1.7,1.7,0,0,1,1.7-1.7,1.6,1.6,0,0,1,.35,0l0.94-2.24-1.55-4.5-3-2.37a0.9,0.9,0,0,0-1.45.72,0.89,0.89,0,0,0,.36.73,0.29,0.29,0,0,1,0,.41,0.28,0.28,0,0,1-.4,0,1.48,1.48,0,0,1,.91-2.64,1.5,1.5,0,0,1,.89.29l10.22,8.13a1.42,1.42,0,0,1,.42,1.63" transform="translate(-387.93 -299.01)"/></svg>