<?xml version="1.0" encoding="utf-8"?>
<!-- Generator: Adobe Illustrator 19.2.1, SVG Export Plug-In . SVG Version: 6.00 Build 0)  -->
<svg version="1.1" id="Layer_1" xmlns="http://www.w3.org/2000/svg" xmlns:xlink="http://www.w3.org/1999/xlink" x="0px" y="0px"
	 viewBox="0 0 13.7 13.6" style="enable-background:new 0 0 13.7 13.6;" xml:space="preserve">
<style type="text/css">
	.st0{fill:#DCE0DF;}
</style>
<title>grocery</title>
<path class="st0" d="M4.1,4.1h1.4c0.3-0.6,0.4-1.3,0.1-2C5.6,1.8,5.3,1.5,5,1.4c0.1-0.2,0.2-0.3,0.3-0.4L5.4,1
	c0.5,0.5,0.8,1.1,1,1.7c0.1,0.5,0.2,1,0.2,1.5h0.3c0.1-0.2,0.1-0.5,0.1-0.7c0-0.3,0-0.6,0-0.9c0-0.2-0.1-0.4-0.1-0.5s0-0.1-0.1-0.2
	V1.7c0-0.1,0.1-0.1,0.2-0.1c0.1,0,0.1,0.1,0.1,0.1v2.4h2.5l0.5-0.6V1.1L9.8,0.3l0,0c0.1,0,0.1-0.1,0.1-0.2C9.9,0.1,9.9,0,9.8,0h-3
	C6.7,0,6.6,0.1,6.6,0.1c0,0.1,0.1,0.2,0.1,0.2c0,0,0,0,0,0h0.1L6.5,1.1v0.4C6.4,1.3,6.3,1.2,6.1,1.1C6,1,5.9,0.9,5.7,0.8
	C5.7,0.7,5.5,0.7,5.4,0.7c0.1-0.1,0.2-0.2,0.3-0.2c0,0,0-0.1,0-0.1c0,0,0,0,0,0c0-0.1-0.1-0.1-0.1-0.1c0,0,0,0,0,0
	c-0.4,0.2-0.7,0.6-0.9,1C3.9,0.9,3,1.3,2.7,2C2.6,2.2,2.6,2.4,2.5,2.5L4.1,4.1z"/>
<path class="st0" d="M3,5.7C3.3,6,3.7,6.1,4,5.9c0,0,0,0,0,0c0.2-0.3,0.2-0.7-0.1-1L1.7,2.4C1.5,2.1,1.1,2.1,0.8,2.3c0,0,0,0,0,0
	c-0.2,0.3-0.2,0.7,0.1,1L3,5.7z"/>
<path class="st0" d="M10.6,5.7l2.2-2.4c0.3-0.3,0.3-0.7,0.1-1c-0.3-0.2-0.7-0.2-0.9,0.1c0,0,0,0,0,0L9.7,4.8c-0.3,0.3-0.3,0.7-0.1,1
	C9.9,6.1,10.3,6,10.6,5.7C10.6,5.7,10.6,5.7,10.6,5.7z"/>
<path class="st0" d="M12.8,4.8h-0.6L11,6.1c-0.3,0.3-0.6,0.4-1,0.4l0,0c-0.3,0-0.6-0.1-0.8-0.4C8.8,5.8,8.7,5.2,9,4.7H4.6
	c0.2,0.5,0.2,1-0.2,1.5C4.2,6.4,3.9,6.6,3.6,6.5c-0.4,0-0.7-0.2-1-0.4L1.3,4.8H0.8C0.3,4.8,0,5.1,0,5.6C0,6,0.3,6.4,0.8,6.4h0.4
	l1.2,6.7c0,0.3,0.3,0.5,0.6,0.6h7.6c0.3,0,0.6-0.3,0.6-0.6l1.2-6.8h0.4c0.4,0,0.8-0.4,0.8-0.8C13.6,5.1,13.3,4.8,12.8,4.8z M4.3,12
	H3.6V7.8h0.7V12L4.3,12z M6.2,12H5.5V7.8h0.8V12z M8.2,12H7.4V7.8h0.8L8.2,12L8.2,12L8.2,12z M10.1,12H9.3V7.8h0.8L10.1,12L10.1,12z
	"/>
</svg>
