<?xml version="1.0" encoding="utf-8"?>
<!-- Generator: Adobe Illustrator 19.2.1, SVG Export Plug-In . SVG Version: 6.00 Build 0)  -->
<svg version="1.1" id="Layer_1" xmlns="http://www.w3.org/2000/svg" xmlns:xlink="http://www.w3.org/1999/xlink" x="0px" y="0px"
	 viewBox="0 0 10.7 12.9" style="enable-background:new 0 0 10.7 12.9;" xml:space="preserve">
<style type="text/css">
	.st0{fill:#DCE0DF;}
</style>
<title>transit</title>
<path class="st0" d="M10.1,3.3c0,0-0.1-1.5-3.9-1.8V1c0,0,0-0.1,0-0.1h1.5c0.3,0,0.5-0.2,0.5-0.5S7.9,0,7.6,0l0,0H3.1
	C2.8,0,2.6,0.2,2.6,0.5s0.2,0.5,0.5,0.5h1.5c0,0,0,0.1,0,0.1v0.5C0.7,1.8,0.6,3.4,0.6,3.4L0,7.2v5.7h10.7V7.2L10.1,3.3z M3.1,2.3
	h4.6c0.3,0,0.5,0.2,0.5,0.5S7.9,3.3,7.7,3.3l0,0H3.1c-0.3,0-0.5-0.2-0.5-0.5C2.6,2.6,2.8,2.3,3.1,2.3L3.1,2.3z M1.1,7.4l0.4-3.3
	c0-0.2,0.2-0.4,0.4-0.4l0,0H9c0.2,0,0.4,0.2,0.4,0.4l0,0l0.4,3.3v1.2c0,0.3-0.2,0.5-0.5,0.5c0,0,0,0,0,0H1.6c-0.3,0-0.5-0.2-0.5-0.5
	c0,0,0,0,0,0L1.1,7.4L1.1,7.4z M1.8,12.1c-0.5,0-0.9-0.4-0.9-0.9s0.4-0.9,0.9-0.9s0.9,0.4,0.9,0.9v0C2.6,11.7,2.3,12.1,1.8,12.1
	C1.8,12.1,1.7,12.1,1.8,12.1L1.8,12.1z M9,12.1c-0.5,0-0.9-0.4-0.9-0.9s0.4-0.9,0.9-0.9s0.9,0.4,0.9,0.9v0C9.9,11.7,9.5,12.1,9,12.1
	C9,12.1,9,12.1,9,12.1L9,12.1z"/>
</svg>
