<?xml version="1.0" encoding="utf-8"?>
<!-- Generator: Adobe Illustrator 19.2.1, SVG Export Plug-In . SVG Version: 6.00 Build 0)  -->
<svg version="1.1" id="Layer_1" xmlns="http://www.w3.org/2000/svg" xmlns:xlink="http://www.w3.org/1999/xlink" x="0px" y="0px"
	 viewBox="0 0 15.4 13.2" style="enable-background:new 0 0 15.4 13.2;" xml:space="preserve">
<style type="text/css">
	.st0{fill:#FFFFFF;fill-opacity:0.7;}
</style>
<title>childcare</title>
<path class="st0" d="M10.8,6.4l1-0.3c0.3-0.2,0.7-0.1,1,0.1l2.4,1.9c0.3,0.2,0.3,0.6,0.1,0.9c0,0,0,0,0,0.1c-0.3,0.3-0.7,0.3-1,0.1
	l-2-1.5L10.8,6.4"/>
<path class="st0" d="M7.9,4C7.2,4,6.5,3.4,6.5,2.6s0.6-1.4,1.4-1.4s1.4,0.6,1.4,1.4S8.7,4,7.9,4L7.9,4"/>
<path class="st0" d="M11.4,11.5c0,0.4,0.3,0.7,0.7,0.7c0.4,0,0.7-0.3,0.7-0.7c0-0.4-0.3-0.7-0.7-0.7c0,0,0,0,0,0
	C11.7,10.8,11.4,11.1,11.4,11.5 M4.5,11.5c0,0.4,0.3,0.7,0.7,0.7c0.4,0,0.7-0.3,0.7-0.7c0-0.4-0.3-0.7-0.7-0.7c0,0,0,0,0,0
	C4.8,10.8,4.5,11.1,4.5,11.5 M13,10.1c0.8,0.5,1.1,1.5,0.6,2.4c-0.5,0.8-1.5,1.1-2.4,0.6c-0.8-0.5-1.1-1.5-0.6-2.4
	c0.3-0.5,0.9-0.8,1.5-0.8c0.1,0,0.2,0,0.4,0c0.1-0.2,0.1-0.4,0-0.5c0-0.2-0.2-0.4-0.3-0.5l-0.6-0.5l-3.1,1C7.7,9.5,7,9.2,6.8,8.5
	c0,0,0,0,0,0L6.8,8.4L6.1,10c0.8,0.5,1,1.5,0.5,2.3s-1.5,1-2.3,0.5c-0.5-0.3-0.8-0.9-0.8-1.4c0-0.9,0.8-1.7,1.7-1.7h0
	c0.1,0,0.2,0,0.4,0l0.9-2.2L4.9,3l-3-2.4C1.5,0.3,1,0.4,0.7,0.8C0.5,0.9,0.5,1.1,0.5,1.3c0,0.3,0.1,0.6,0.4,0.7C1,2.2,1,2.4,0.8,2.5
	c-0.1,0.1-0.3,0.1-0.4,0c0,0,0,0,0,0C-0.2,2-0.3,1,0.2,0.4C0.5,0,0.9-0.2,1.4-0.2c0.3,0,0.6,0.1,0.9,0.3l10.2,8.1
	c0.5,0.4,0.7,1.1,0.4,1.6"/>
</svg>
