<?xml version="1.0" encoding="utf-8"?>
<!-- Generator: Adobe Illustrator 19.2.1, SVG Export Plug-In . SVG Version: 6.00 Build 0)  -->
<svg version="1.1" id="Layer_1" xmlns="http://www.w3.org/2000/svg" xmlns:xlink="http://www.w3.org/1999/xlink" x="0px" y="0px"
	 viewBox="0 0 15.7 13.6" style="enable-background:new 0 0 15.7 13.6;" xml:space="preserve">
<style type="text/css">
	.st0{fill:#FFFFFF;fill-opacity:0.7;}
</style>
<title>health</title>
<path class="st0" d="M11.5,0C10,0,8.6,0.8,7.8,2C6.6,0,4-0.6,2,0.6C0,1.8-0.6,4.4,0.6,6.4c0.2,0.4,0.5,0.7,0.8,1l6,6
	c0.2,0.2,0.6,0.2,0.8,0l6-6c1.8-1.5,1.9-4.2,0.4-6C13.8,0.5,12.7,0,11.5,0z M10.6,7.1c0,0.1-0.1,0.2-0.2,0.2H8.7v1.7
	c0,0.1-0.1,0.2-0.2,0.2H7.2C7.1,9.3,7,9.2,7,9.1V7.4H5.3c-0.1,0-0.2-0.1-0.2-0.2V6c0-0.1,0.1-0.2,0.2-0.2H7V4c0-0.1,0.1-0.2,0.2-0.2
	h1.2c0.1,0,0.2,0.1,0.2,0.2v1.7h1.7c0.1,0,0.2,0.1,0.2,0.2L10.6,7.1L10.6,7.1z"/>
</svg>
