<svg xmlns="http://www.w3.org/2000/svg" viewBox="0 0 13.67 13.64"><defs><style>.a{fill:#231f20;}</style></defs><title>grocery</title><path class="a" d="M393.84,303.68h1.36a2.59,2.59,0,0,0,.15-2,1.37,1.37,0,0,0-.65-0.8,1.56,1.56,0,0,1,.3-0.42l0.06,0.06a3.64,3.64,0,0,1,.95,1.72,4.77,4.77,0,0,1,.18,1.45h0.33a5.94,5.94,0,0,0,.12-0.71,2.79,2.79,0,0,0,0-.86c0-.18-0.09-0.36-0.12-0.53s0-.12-0.06-0.18v-0.15a0.15,0.15,0,0,1,.3,0v2.43h2.46l0.53-.56V300.6l-0.27-.77h0a0.15,0.15,0,0,0,0-.3h-3a0.15,0.15,0,1,0,0,.3h0.06l-0.36.77V301a1.45,1.45,0,0,0-.36-0.39,1.22,1.22,0,0,0-.39-0.3,0.5,0.5,0,0,0-.3-0.09,3.11,3.11,0,0,1,.33-0.24,0.1,0.1,0,0,0,0-.15,0.11,0.11,0,0,0-.15-0.06,2.51,2.51,0,0,0-.92,1,1.54,1.54,0,0,0-2,.77c-0.06.18-.09,0.36-0.15,0.5Z" transform="translate(-389.69 -299.53)"/><path class="a" d="M392.74,305.26a0.65,0.65,0,0,0,.95.09,0.78,0.78,0,0,0-.09-1l-2.19-2.4a0.65,0.65,0,0,0-.95-0.09,0.78,0.78,0,0,0,.09,1Z" transform="translate(-389.69 -299.53)"/><path class="a" d="M400.28,305.26l2.22-2.4a0.78,0.78,0,0,0,.09-1,0.65,0.65,0,0,0-.95.09l-2.22,2.4a0.78,0.78,0,0,0-.09,1A0.67,0.67,0,0,0,400.28,305.26Z" transform="translate(-389.69 -299.53)"/><path class="a" d="M402.53,304.28h-0.59l-1.25,1.36a1.31,1.31,0,0,1-1,.44h0a1.08,1.08,0,0,1-.83-0.36,1.3,1.3,0,0,1-.18-1.45h-4.39a1.3,1.3,0,0,1-.18,1.45,1.08,1.08,0,0,1-.83.36,1.43,1.43,0,0,1-1-.44l-1.25-1.36h-0.59a0.8,0.8,0,0,0,0,1.6h0.39l1.25,6.73a0.63,0.63,0,0,0,.59.56h7.62a0.63,0.63,0,0,0,.59-0.56l1.22-6.76h0.42a0.8,0.8,0,0,0,.8-0.8A0.84,0.84,0,0,0,402.53,304.28ZM394,311.57h-0.74v-4.21H394v4.21h0Zm1.93,0h-0.77v-4.21h0.77v4.21Zm1.93,0H397.1v-4.21h0.77v4.21h0Zm1.93,0H399v-4.21h0.77v4.21Z" transform="translate(-389.69 -299.53)"/></svg>