<svg xmlns="http://www.w3.org/2000/svg" viewBox="0 0 15.67 13.58"><defs><style>.a{fill:#231f20;}</style></defs><title>health</title><path class="a" d="M399.67,299.36a4.23,4.23,0,0,0-3.61,2,4.23,4.23,0,1,0-6.38,5.4l6,6a0.55,0.55,0,0,0,.77,0l6-6A4.23,4.23,0,0,0,399.67,299.36Zm-0.86,7.14a0.24,0.24,0,0,1-.24.24H396.9v1.67a0.24,0.24,0,0,1-.24.24h-1.19a0.24,0.24,0,0,1-.24-0.24v-1.67h-1.67a0.24,0.24,0,0,1-.24-0.24v-1.19a0.24,0.24,0,0,1,.24-0.24h1.67V303.4a0.24,0.24,0,0,1,.24-0.24h1.19a0.24,0.24,0,0,1,.24.24v1.67h1.67a0.24,0.24,0,0,1,.24.24v1.19Z" transform="translate(-388.22 -299.36)"/></svg>