<svg xmlns="http://www.w3.org/2000/svg" viewBox="0 0 10.69 12.93"><defs><style>.a{fill:#231f20;}</style></defs><title>transit</title><path class="a" d="M400.86,302.75s-0.11-1.55-3.88-1.75v-0.48a0.9,0.9,0,0,0,0-.1h1.45a0.47,0.47,0,0,0,0-.95h-4.59a0.47,0.47,0,0,0,0,.95h1.45a0.87,0.87,0,0,0,0,.1V301c-3.78.23-3.94,1.93-3.94,1.93l-0.55,3.73v5.74h10.69v-5.74Zm-7-.95h4.59a0.47,0.47,0,0,1,0,.95h-4.59A0.47,0.47,0,0,1,393.83,301.81Zm-2,5.12,0.35-3.31a0.35,0.35,0,0,1,.35-0.35h7.24a0.35,0.35,0,0,1,.35.35l0.35,3.31v1.21a0.54,0.54,0,0,1-.54.54h-7.55a0.54,0.54,0,0,1-.54-0.54v-1.21Zm0.69,4.64a0.86,0.86,0,1,1,.86-0.86A0.86,0.86,0,0,1,392.5,311.57Zm7.25,0a0.86,0.86,0,1,1,.86-0.86A0.86,0.86,0,0,1,399.75,311.57Z" transform="translate(-390.78 -299.48)"/></svg>